<?xml version="1.0" encoding="UTF-8" standalone="no"?>
<!-- Created with Inkscape (http://www.inkscape.org/) -->

<svg
   xmlns:dc="http://purl.org/dc/elements/1.1/"
   xmlns:cc="http://creativecommons.org/ns#"
   xmlns:rdf="http://www.w3.org/1999/02/22-rdf-syntax-ns#"
   xmlns:svg="http://www.w3.org/2000/svg"
   xmlns="http://www.w3.org/2000/svg"
   version="1.1"
   width="2387"
   height="2365"
   id="svg2">
  <metadata
     id="metadata8">
    <rdf:RDF>
      <cc:Work
         rdf:about="">
        <dc:format>image/svg+xml</dc:format>
        <dc:type
           rdf:resource="http://purl.org/dc/dcmitype/StillImage" />
        <dc:title></dc:title>
      </cc:Work>
    </rdf:RDF>
  </metadata>
  <defs
     id="defs6" />
  <g
     id="g2987">
    <path
       d="M 1137.5,2362.8767 C 919.25966,2350.8014 707.95561,2280.3693 528.33439,2159.829 463.43013,2116.273 406.2377,2069.2028 349.942,2013.0096 290.44883,1953.6248 244.07863,1896.9075 197.04895,1826 88.116603,1661.7606 21.583871,1471.68 4.5359359,1276 -10.353076,1105.1006 13.128335,931.45665 73.049996,769.34155 96.46817,705.98484 122.84541,649.6239 156.51485,591 270.65622,392.26159 442.52335,230.62481 650,126.88942 879.12087,12.332241 1136.1426,-25.739696 1388.5,17.497408 1686.646,68.57961 1955.965,229.90758 2138.0595,466.5 c 136.6879,177.59635 219.6275,384.60987 242.3921,605 4.946,47.8835 7.0121,124.8451 4.6312,172.5109 -6.1432,122.9851 -29.8712,238.5114 -72.8087,354.4891 -4.6833,12.65 -9.308,23.8346 -10.2771,24.8547 -2.0559,2.1641 -5.6737,1.4943 -6.2201,-1.1517 -0.1935,-0.9366 1.1367,-9.128 2.9559,-18.203 37.4781,-186.9573 19.6124,-359.303 -52.8624,-509.9486 C 2157.6356,910.64702 1993.4885,772.07339 1770.5,692.74179 1695.3061,665.99042 1625.3467,650.43935 1549,643.50526 c -102.3695,-9.29757 -212.2772,1.51651 -313.5,30.84603 -54.0362,15.65709 -96.9143,32.38016 -149,58.11216 C 956.82885,796.52507 846.40803,888.30868 758.62329,1005 c -93.20237,123.8929 -154.5642,269.0689 -181.53768,429.5 -30.21161,179.6906 -7.16902,348.3932 67.33741,493 86.56018,168.0015 238.16031,297.0235 440.57698,374.9608 20.647,7.9498 64.694,22.7874 84.5,28.4646 29.5527,8.4708 72.2806,18.1441 97.8284,22.1476 7.6355,1.1965 10.6716,2.726 10.6716,5.376 0,2.949 -3.2277,3.7427 -18.7075,4.6001 -19.4269,1.0761 -101.3231,0.9602 -121.7925,-0.1724 z m 91.5,-7.7763 c 0,-0.4948 -3.4875,-1.6594 -7.75,-2.5879 -48.9414,-10.6617 -106.6481,-28.9552 -160.3783,-50.8413 -139.80087,-56.9456 -257.87291,-141.79 -342.38045,-246.0282 l -7.99125,-9.8571 -16.88941,-8.4683 C 561.83035,1971.2433 430.4262,1855.1711 347.3314,1731.4414 c -11.41168,-16.9922 -26.64331,-41.6706 -32.83,-53.1914 -1.55059,-2.8875 -3.17735,-5.25 -3.61502,-5.25 -1.17313,0 -1.68889,4.4973 -2.83692,24.7373 -4.59739,81.0535 -3.21961,167.199 3.91182,244.5866 l 1.91897,20.824 3.68757,4.5002 c 5.82763,7.1118 47.41173,49.225 64.09745,64.9129 204.64086,192.4033 474.09303,307.0103 757.83473,322.3324 21.2022,1.1449 89.5,1.3029 89.5,0.207 z M 696.38816,2027.75 c -0.40142,-0.6875 -5.08739,-7.55 -10.41324,-15.25 C 579.95733,1859.2223 538.31549,1676.8315 563.02939,1474 c 10.43861,-85.6717 34.26416,-176.6562 68.74496,-262.5218 l 2.01661,-5.0219 -6.42652,-16.9781 C 594.38213,1102.3425 569.18363,1004.7613 557.00208,917 c -3.64157,-26.23555 -3.77927,-27 -4.86346,-27 -2.97134,0 -53.58865,95.69773 -75.27113,142.3086 -90.04963,193.5797 -144.31855,393.9358 -164.32605,606.6774 l -1.4564,15.486 6.1038,11.514 c 24.89797,46.9666 60.45839,97.5628 102.62269,146.014 16.71211,19.204 59.54064,62.4628 80.34064,81.1479 56.61139,50.8551 114.84822,92.5547 175.02401,125.3233 18.65261,10.1572 22.77875,11.9621 21.21198,9.2788 z M 303.621,1942.25 c -5.02256,-65.1987 -6.00248,-89.2797 -5.99202,-147.25 0.009,-49.3959 0.95064,-78.4361 3.87294,-119.4304 l 1.34947,-18.9303 -9.80205,-20.5697 c -53.32441,-111.9015 -92.15318,-238.7426 -115.87398,-378.5229 -2.14236,-12.6243 -4.32088,-23.0952 -4.84118,-23.2686 -2.82281,-0.941 -5.64983,11.868 -11.74645,53.2219 -19.90463,135.0151 -25.43589,275.4529 -16.06941,408 2.29298,32.4485 1.54972,29.4213 11.72657,47.7603 30.90501,55.6919 68.7737,112.3307 108.96172,162.97 13.76627,17.3463 37.13536,44.7697 38.1509,44.7697 0.56332,0 0.66849,-3.4926 0.26349,-8.75 z m -167.05284,-244.5 c -0.97075,-8.8517 -2.45686,-37.6625 -3.6752,-71.25 -1.26903,-34.9848 -0.66936,-118.0583 1.08278,-150 3.61739,-65.9455 9.18908,-124.4906 17.08272,-179.4986 3.23313,-22.5305 3.50177,-25.9616 1.90784,-24.3677 -1.56746,1.5675 -13.1756,27.3704 -22.6586,50.3663 -26.01291,63.0802 -46.138503,126.1032 -60.810339,190.4268 l -4.545185,19.9268 4.162593,12.5732 c 9.26042,27.9713 24.633784,67.7677 37.924961,98.1746 10.53972,24.1123 27.64457,58.8986 28.96119,58.8986 0.78529,0 0.96281,-1.643 0.56724,-5.25 z m 170.1579,-82.8321 c 26.20582,-252.1375 105.95222,-499.3863 231.99407,-719.28359 l 12.5331,-21.8657 -2.12792,-23.6343 c -1.17035,-12.99887 -2.41927,-29.34106 -2.77536,-36.31597 -0.3561,-6.97492 -0.98769,-13.23218 -1.40353,-13.90503 -0.82553,-1.33575 -3.25599,0.28671 -22.44642,14.98412 C 393.24931,913.88692 282.17235,1039.7042 202.78455,1177.0403 184.89266,1207.9922 180,1217.5013 180,1221.3234 c 0,5.1423 8.28357,53.8882 14.13451,83.1766 19.94436,99.8366 48.05535,193.3668 83.10352,276.5 11.74046,27.848 25.00336,56.0861 26.16183,55.7013 0.65733,-0.2184 1.99615,-8.9864 3.3262,-21.7834 z m 2015.09184,-68.6524 c 29.4753,-91.8538 45.8431,-176.1113 53.8616,-277.2655 2.2611,-28.5237 2.5795,-124.0896 0.5082,-152.5 -5.5094,-75.566 -15.2752,-137.89675 -32.8239,-209.5 l -4.534,-18.5 -5.0942,-4.85072 c -6.9454,-6.61348 -40.319,-33.29214 -62.2356,-49.75083 -104.3429,-78.35817 -217.2855,-142.11181 -339,-191.35817 -23.8099,-9.6336 -32.5,-12.709 -32.5,-11.5016 0,0.54763 5.6383,8.86489 12.5295,18.48282 30.8632,43.07511 62.2379,93.51771 87.5696,140.78946 l 7.4009,13.81095 13,9.59678 c 62.3055,45.99478 117.5779,100.48823 161.1456,158.87472 46.0081,61.65679 80.942,128.39519 105.4253,201.40659 37.1017,110.6406 47.8448,234.1667 31.3528,360.5 -1.3642,10.45 -2.7636,21.208 -3.1099,23.9066 -1.1143,8.6853 1.2182,4.3312 6.5041,-12.1411 z M 61.467828,1511.75 C 80.42312,1427.4513 112.56494,1336.0787 151.95972,1254.5 l 8.20939,-17 3.82626,-20.6436 3.82626,-20.6437 -1.91522,-14.8563 c -6.27976,-48.7121 -10.8023,-102.1051 -14.09084,-166.3564 -1.66328,-32.497 -1.68185,-157.20479 -0.0284,-191 2.12065,-43.34563 6.41841,-107.36759 7.80378,-116.25 0.4563,-2.92559 0.25536,-3.75 -0.91402,-3.75 -3.79686,0 -60.037184,66.85716 -85.641977,101.80915 -7.267821,9.92098 -8.123507,11.627 -11.882576,23.69085 -57.4454318,184.3576 -68.1876117,377.5423 -31.528455,567 6.852633,35.415 22.295651,97.5932 28.87269,116.25 0.710146,2.0144 2.423062,1.4379 2.971256,-1 z m 124.064402,-321 c 9.61058,-17.4454 28.6811,-49.0534 42.33116,-70.1607 77.2015,-119.3782 180.25822,-229.73829 295.63661,-316.58772 10.45,-7.86608 19.50273,-14.91365 20.11718,-15.66126 0.79452,-0.96671 0.97386,-10.52613 0.62096,-33.0998 -0.69995,-44.77336 1.67235,-98.42233 6.28973,-142.24052 5.17146,-49.07636 10.80909,-83.10415 24.66004,-148.844 1.39987,-6.64409 0.63662,-7.30605 -7.68791,-6.6676 -3.3,0.2531 -15,0.71209 -26,1.01999 -22.21968,0.62195 -63.34723,3.27916 -64.81743,4.18779 -2.62988,1.62536 -40.3533,61.12695 -60.42169,95.30382 -105.22649,179.20288 -182.62183,376.35732 -228.27479,581.5 -11.08635,49.8168 -13.25172,63.5 -10.04889,63.5 0.46562,0 3.88338,-5.5125 7.59503,-12.25 z m 460.3955,-12 C 700.89207,1056.4095 786.31608,942.0298 888.69895,853.68794 1007.4356,751.23508 1148.2933,681.53098 1300,650.15365 c 12.375,-2.55951 22.4355,-5.07941 22.3567,-5.59978 -0.3116,-2.05655 -62.9349,-34.09145 -96.8567,-49.54699 C 1187.8106,577.83473 1129.4421,554 1125.079,554 c -1.1156,0 -10.4772,1.59588 -20.8036,3.5464 -108.70074,20.532 -214.35601,53.53616 -313.7754,98.01585 -28.10789,12.57532 -79.38879,38.21504 -104.5,52.24853 -22.36757,12.50019 -19.91981,10.12217 -42.72582,41.50836 -26.25261,36.12947 -58.73299,84.9961 -77.73992,116.95948 l -5.81483,9.77861 2.70701,21.22139 c 9.73899,76.34807 28.36117,158.52528 52.73701,232.72138 9.97983,30.377 22.04491,63 23.29952,63 0.58443,0 3.94357,-6.4125 7.46476,-14.25 z m -465.8945,-40.8029 C 231.44055,906.41305 323.83905,683.63687 449.31844,488.69054 457.3933,476.14534 464,465.45784 464,464.94054 464,464.42324 462.4698,464 460.59956,464 453.14469,464 383.54966,508.78048 335,544.81624 282.87217,583.50788 244.81814,616.27756 198.33886,662.5 l -29.16114,29 -0.5861,6 c -3.05145,31.23819 -6.54848,82.29658 -8.80105,128.5 -1.64833,33.80939 -1.63425,154.72825 0.0218,187 2.63018,51.2559 5.4076,88.0146 9.6933,128.2894 2.21152,20.7827 3.00104,25.5373 4.0641,24.4742 0.2032,-0.2032 3.11177,-12.7206 6.4635,-27.8165 z M 2333,869.62671 c 0,-1.78203 -5.8683,-21.38512 -11.6755,-39.0019 l -4.5738,-13.87519 -12.1796,-14.62481 c -172.096,-206.64616 -402.8852,-362.46817 -666.6323,-450.09039 -26.3631,-8.75836 -36.621,-11.51483 -34.4388,-9.25424 0.55,0.56975 8.7302,6.66539 18.1782,13.54586 81.5791,59.40968 159.0513,131.29633 224.4402,208.25863 11.6447,13.70574 34.3604,41.62208 40.4462,49.70623 1.4518,1.92845 6.6831,4.35469 20.9354,9.70963 111.6846,41.9627 224.9469,101.75776 325.5,171.84265 24.3717,16.98692 66.0478,48.30891 84.5,63.50666 7.7,6.34192 14.3375,11.55763 14.75,11.59046 0.4125,0.0328 0.75,-0.55828 0.75,-1.31359 z M 569.5,844.23149 c 12.8585,-20.99624 41.66948,-64.16039 59.44621,-89.06138 8.37503,-11.73145 14.98361,-21.57362 14.68573,-21.8715 -0.70738,-0.70738 -6.04763,2.44054 -29.63194,17.46718 -24.36348,15.52308 -59.65661,39.89697 -60.33672,41.66932 -0.55679,1.45095 1.72847,39.06138 3.33705,54.92084 0.54982,5.42078 0.99967,10.25828 0.99967,10.75 0,3.32577 3.70023,-1.13846 11.5,-13.87446 z M 1991,791.31726 c 0,-1.17584 -13.8979,-26.01474 -25.356,-45.31726 -22.0808,-37.19773 -45.5591,-72.65318 -70.0301,-105.75501 l -12.0168,-16.255 -7.5486,-2.90628 c -12.8,-4.92817 -54.416,-18.5889 -77.5485,-25.45581 -106.993,-31.76102 -212.5072,-51.09084 -322.5,-59.08082 -40.9957,-2.97797 -72.7442,-3.81828 -122.5,-3.24231 -48.1881,0.55782 -62.1963,1.15146 -100,4.23775 -40.42,3.2999 -105.8733,11.47222 -107.9021,13.47237 -0.532,0.52444 0.083,1.29898 1.5,1.88765 1.3211,0.54906 12.3092,5.01532 24.418,9.92502 51.1585,20.74309 108.2131,47.84489 153.1773,72.76142 l 13.2616,7.34881 17.2726,-2.41123 c 94.5258,-13.19568 191.8438,-10.60141 284.7434,7.59059 115.5042,22.61851 242.5948,74.01358 339.5292,137.30463 9.8019,6.39989 11.5,7.27044 11.5,5.89548 z m 316,-1.85642 c 0,-1.04948 -9.0724,-24.77249 -15.535,-40.62177 -45.4297,-111.4143 -109.8379,-218.53488 -187.0233,-311.04744 -23.8105,-28.53877 -42.5279,-48.93804 -71.9113,-78.37282 -49.9995,-50.08698 -95.0869,-88.52901 -149.2771,-127.2754 l -14.2466,-10.18646 -14.7534,-4.06151 C 1731.7238,184.16381 1595.5645,177.96253 1463.5,200.09885 c -28.86,4.83745 -77.0786,15.20431 -78.9262,16.96891 -0.5484,0.52382 5.3652,3.82521 14.5,8.09487 54.5428,25.49364 116.9817,59.99206 163.2688,90.20843 l 14.8427,9.68933 22.1573,6.40852 c 112.6934,32.59406 237.5056,87.54418 343.5219,151.23974 133.9641,80.48687 254.5648,181.84031 354.0452,297.54135 7.3965,8.60251 10.0903,11.0615 10.0903,9.21084 z M 86.013358,775.25 c 20.536312,-26.30979 51.430222,-62.37783 69.274702,-80.87686 l 5.91006,-6.12685 2.88163,-26.87315 c 3.05043,-28.44741 8.68817,-74.34363 9.59639,-78.12314 0.83876,-3.49046 -1.36687,-2.68142 -4.08935,1.5 -10.5032,16.13173 -41.36986,75.36848 -55.88506,107.25 -12.98566,28.52201 -32.834899,77.54034 -37.152797,91.75 -1.328359,4.37147 1.166319,2.131 9.464425,-8.5 z M 581.67898,762.38069 c 22.4658,-15.20225 50.27389,-32.87545 69.28473,-44.03332 8.09377,-4.7504 9.04562,-5.70796 21.77697,-21.90745 55.48157,-70.5953 116.60891,-136.61201 179.04235,-193.36334 11.14742,-10.13288 20.10864,-18.90788 19.91383,-19.5 C 871.29161,482.34481 826.208,474.58368 796.5,470.63147 736.86549,462.69799 683.30239,458.6801 619.78544,457.37572 l -33.71456,-0.69235 -0.9503,2.49948 c -1.55479,4.0894 -8.75091,37.73624 -13.04827,61.00965 -13.67102,74.03877 -20.91934,158.03088 -19.9118,230.7338 0.21017,15.16554 0.75291,28.16261 1.2061,28.8824 0.67889,1.07826 1.14685,1.07826 2.65767,0 1.00852,-0.71979 12.55314,-8.56239 25.6547,-17.42801 z m 118.99937,-71.91712 c 97.74148,-52.30186 204.96319,-93.79022 313.89975,-121.46038 23.3867,-5.94025 66.265,-15.52001 83.1719,-18.58203 8.7492,-1.58457 10.5972,-2.47054 8.2189,-3.94037 -2.199,-1.35905 -38.1087,-13.70879 -57.7858,-19.87318 -49.96396,-15.65254 -92.40797,-26.66236 -144.85179,-37.57401 -17.11508,-3.56103 -18.31205,-3.68611 -20.64069,-2.15692 -13.01873,8.54924 -99.53101,93.21608 -129.89415,127.12332 -25.28709,28.23869 -67.29395,78.26227 -71.16807,84.75 -1.43021,2.39508 1.34151,1.18942 19.04995,-8.28643 z M 193.92026,654.75 C 254.19584,595.4961 315.23247,546.05253 387,498.34311 c 10.725,-7.12974 24.9,-16.27461 31.5,-20.32193 6.6,-4.04733 12.8875,-8.18282 13.97222,-9.18998 1.95019,-1.81074 1.9429,-1.8312 -0.6531,-1.8312 -8.85639,0 -74.2927,9.97463 -108.81912,16.58758 -36.67787,7.02503 -100.95267,22.34242 -103.90422,24.76152 -1.48657,1.2184 -24.19807,34.98836 -30.36559,45.1509 -3.40722,5.61426 -3.80211,7.15721 -6.14235,24 C 178.03195,610.28881 171,668.87672 171,674.04606 c 0,1.07467 0.29337,1.95394 0.65193,1.95394 0.35856,0 10.37931,-9.5625 22.26833,-21.25 z M 1872,609.49957 c 0,-0.91198 -21.0906,-26.735 -35.909,-43.96659 -39.6159,-46.06705 -89.316,-95.96372 -135.091,-135.62507 -35.4713,-30.73379 -76.3214,-62.31055 -114.2431,-88.30876 -14.1969,-9.73308 -12.6066,-9.13263 -49.2569,-18.59882 -99.6391,-25.73523 -203.3426,-41.2787 -306.4074,-45.92551 -22.0379,-0.99361 -19.7908,-1.42942 -39.5926,7.67885 -64.482,29.65995 -131.5945,68.36932 -193.5,111.60764 -37.00636,25.84734 -104,78.39067 -104,81.56754 0,0.40893 9.1125,2.6695 20.25,5.02348 63.83616,13.49217 133.1696,33.3141 193.25,55.24881 l 19,6.93669 16,-2.54175 c 52.1599,-8.28609 109.7009,-14.06801 164.8317,-16.56287 45.2098,-2.0459 116.6533,-1.17219 163.6683,2.00155 125.8109,8.49285 257.9886,34.59506 374,73.8568 21.9589,7.43157 27,8.85203 27,7.60801 z M 244.80087,492.55063 c 59.09666,-14.88021 124.8019,-26.74003 188.42018,-34.00989 l 21.72105,-2.48213 12.27895,-7.0663 c 6.75342,-3.88647 13.27056,-8.28716 14.48253,-9.77931 1.21197,-1.49215 10.31388,-14.09664 20.22646,-28.00997 44.26691,-62.13317 89.42762,-117.5688 143.29925,-175.9026 l 14.96041,-16.19957 10.23318,-20.80043 c 11.816,-24.01775 23.00222,-45.02005 36.23913,-68.03957 C 711.7979,121.32934 716,113.51906 716,112.9047 c 0,-0.79375 -2.677,-0.90999 -9.25,-0.40164 -10.6851,0.82637 -15.61577,2.8737 -56.75,23.56395 C 554.85446,183.92461 465.7991,245.27017 386.02582,317.90495 357.48629,343.89062 314.31472,388.55614 286.37903,421 266.32769,444.28715 229,492.32098 229,494.83619 c 0,1.63848 0.50898,1.56486 15.80087,-2.28556 z m 654.5122,-30.90823 c 81.92984,-68.44248 170.27313,-126.32969 260.92763,-170.97363 14.7073,-7.24282 26.7448,-13.56904 26.75,-14.05826 0.012,-1.13861 -83.0449,-0.0829 -104.4907,1.32812 -150.85843,9.92581 -283.89136,37.82506 -416.5,87.34705 -24.24317,9.05349 -59.76684,23.39742 -61.6695,24.90124 -0.64322,0.50839 -2.10662,4.00964 -3.252,7.78056 C 597.20194,410.7302 588,445.3598 588,447.1857 c 0,1.67252 1.19173,1.81531 15.25,1.82726 78.99915,0.0672 176.87711,8.90061 254.13592,22.93567 11.61275,2.1096 21.92996,3.88418 22.92715,3.94351 0.99719,0.0593 9.54719,-6.35306 19,-14.24974 z M 507,451.99756 c 7.975,-0.53433 27.28288,-1.42274 42.90639,-1.97426 15.62352,-0.55151 28.58085,-1.17721 28.79408,-1.39043 0.21323,-0.21323 2.60325,-8.88036 5.31116,-19.26028 2.7079,-10.37992 5.81309,-21.9338 6.9004,-25.67528 1.50684,-5.18507 1.68264,-6.91562 0.73931,-7.27761 -3.35469,-1.28732 -98.54635,45.54714 -105.40134,51.85764 -1.2375,1.13921 -2.25,2.66785 -2.25,3.39697 0,1.606 3.18609,1.65078 23,0.32325 z m 17.25833,-33.6746 c 12.78292,-6.42237 34.19763,-16.69369 47.58825,-22.82514 l 24.34659,-11.14811 9.28153,-27.92485 c 11.99202,-36.07972 21.84488,-62.16101 36.18092,-95.77366 3.01406,-7.06685 5.18169,-13.14185 4.81696,-13.5 -0.71599,-0.70309 -0.5228,-0.91082 -26.50704,28.50123 -31.6324,35.8053 -60.92138,71.90835 -89.92623,110.84757 -25.60615,34.37643 -31.92889,43.5 -30.14599,43.5 0.61784,0 11.58209,-5.25467 24.36501,-11.67704 z M 627.55139,371.43932 C 760.95654,317.24138 906.55585,283.22637 1053,272.04571 c 41.2706,-3.15091 66.0227,-4.04 112.5547,-4.04297 l 43.0548,-0.003 16.4452,-6.86503 c 36.4147,-15.20119 70.7151,-27.53183 107.4138,-38.61413 11.5327,-3.48264 21.1158,-6.77369 21.2957,-7.31344 0.3605,-1.08157 -11.3911,-6.20576 -40.2642,-17.55684 -114.106,-44.85927 -240.5566,-74.58929 -364,-85.58071 -41.64016,-3.70765 -53.46203,-4.2423 -105.73754,-4.78202 -47.58952,-0.49135 -51.94589,-0.39766 -54.33632,1.16861 -3.64772,2.39008 -31.87791,27.22285 -49.30628,43.37242 -8.04093,7.45092 -27.72975,26.62503 -43.75294,42.60913 -28.04886,27.98043 -29.27053,29.35974 -32.82612,37.06201 -10.95493,23.73101 -26.68052,61.48089 -36.24187,87 C 622.38332,331.6197 607,376.84161 607,378.17221 c 0,1.48279 1.69913,0.92614 20.55139,-6.73289 z m 917.56521,-56.79877 c -2.2944,-2.76468 -41.8465,-26.31417 -71.4139,-42.52016 C 1441.5834,254.5157 1372.5394,221 1368.3921,221 c -2.4922,0 -35.4455,9.6623 -56.8921,16.6815 -19.573,6.40599 -53.6204,18.80329 -70.4638,25.65724 -8.5495,3.47898 -11.1828,5.66126 -6.8313,5.66126 1.3044,0 12.9294,0.68631 25.8334,1.52513 68.5284,4.4547 137.2149,13.6025 203.2373,27.06757 24.5283,5.00246 67.6465,14.91514 75.2244,17.29374 1.65,0.51791 4.0676,0.98033 5.3724,1.02761 1.8904,0.0685 2.1432,-0.19032 1.2442,-1.2735 z M 1391,206.57701 c 60.9847,-14.72012 121.0229,-23.37761 185,-26.67691 24.8007,-1.27897 86.6073,-0.66688 109,1.07946 48.3461,3.77037 95.8938,10.95468 139.4853,21.0758 9.3442,2.16955 17.3877,3.94464 17.8745,3.94464 2.1448,0 -2.5404,-3.60054 -14.7391,-11.32706 C 1715.5883,123.71332 1589.4196,70.830879 1459,40.169069 1390.8923,24.15685 1324.1332,14.490252 1249.5,9.8338213 c -25.7868,-1.6088624 -102.2132,-1.6088624 -128,0 C 1034.3392,15.271862 954.86567,28.038148 877.15046,49.0851 l -22.34954,6.052737 -7.15046,5.744248 C 843.71771,64.041421 832.0625,73.338718 821.75,81.542743 811.4375,89.746769 803,97.030844 803,97.729577 c 0,1.003023 7.41946,1.272436 35.25,1.279985 151.83378,0.04118 308.6211,28.232918 453.335,81.513588 16.5471,6.09228 56.6394,22.11284 70.915,28.33701 3.85,1.67861 7.675,2.85632 8.5,2.61714 0.825,-0.23918 9.825,-2.44431 20,-4.90029 z M 704.84578,174.16723 c 26.88711,-25.91218 36.88171,-35.22258 55.86892,-52.04431 8.4289,-7.46758 13.84819,-12.96003 13.31425,-13.49397 -1.10665,-1.10665 -42.7733,1.22978 -45.29355,2.5398 -2.89667,1.50569 -17.78252,26.85839 -35.6622,60.73772 C 682.69692,191.56799 680.5902,196 681.62053,196 c 0.31407,0 10.76543,-9.82475 23.22525,-21.83277 z m 63.47427,-74.14114 18.82005,-0.910721 6.17995,-5.119046 C 796.71902,91.180848 806.25,83.39239 814.5,76.688638 825.87137,67.448537 829.0027,64.428856 827.44425,64.205905 824.22772,63.745747 759.28336,86.613671 741.5,94.468219 c -10.24838,4.526499 -9.83033,7.983531 0.85563,7.075611 3.9294,-0.33386 15.61339,-1.01684 25.96442,-1.51774 z"
       id="path2995"
       style="fill:#92b5c6" />
    <path
       d="m 1142,2362.8809 c -43.8087,-3.1851 -55.5225,-4.1594 -71.5,-5.9466 -228.63221,-25.574 -444.30007,-114.2596 -620.95265,-255.344 -38.38376,-30.6554 -60.28147,-50.3154 -98.65554,-88.5741 C 290.08295,1952.3901 246.06741,1898.8827 199.51898,1829 85.54456,1657.8914 19.179107,1464.7407 3.4984993,1258.5 -0.18439308,1210.0604 -0.8367133,1147.0686 1.9917554,1113 2.5168749,1106.675 3.662822,1092.275 4.5383044,1081 22.990994,843.35495 117.9388,610.65666 271.54183,426.62718 312.05509,378.08886 362.69852,326.81282 410.5,285.93324 601.26595,122.7912 846.05409,22.044666 1095.5,4.0103885 c 8.25,-0.5964531 20.2026,-1.5132503 26.5614,-2.0373269 34.2175,-2.82012062 98.3389,-2.16167561 147.4386,1.5140049 211.8882,15.8622915 411.2644,83.8477825 584.65,199.3604135 133.4808,88.92729 243.6755,199.09377 332.738,332.65252 110.1864,165.2364 177.7569,356.76219 194.5698,551.5 3.2446,37.5817 3.7745,49.0114 4.2653,92 0.4872,42.6727 0.2196,51.6598 -2.8283,95 -7.5936,107.9785 -32.3079,220.7349 -71.2366,325.0098 -9.5141,25.4846 -9.2727,24.9902 -12.203,24.9902 -1.3849,0 -2.7836,-0.6921 -3.1082,-1.5381 -0.3246,-0.8459 1.2584,-10.8584 3.5179,-22.25 12.6869,-63.9648 18.1105,-117.9024 18.1208,-180.2119 0.01,-33.2082 -0.9333,-52.7168 -4.0181,-83.5 -11.7856,-117.6093 -50.8762,-228.6158 -114.4476,-325 C 2151.7615,939.09064 2088.7727,873.56193 2014.4894,819.0085 1897.7449,733.27166 1739.6783,668.82858 1596.5,648.59604 c -45.6645,-6.45286 -70.2001,-8.08567 -121.5,-8.08567 -43.9099,0 -57.7736,0.67078 -93,4.49974 -233.9239,25.4265 -453.07544,146.89415 -604.74649,335.18884 -100.24206,124.44725 -167.35341,273.11145 -197.791,438.14395 -11.66281,63.2357 -16.14168,116.642 -15.15056,180.6562 0.71328,46.0689 3.18543,75.1938 9.8038,115.5009 19.73838,120.2101 67.28306,229.5501 141.10349,324.5 33.13988,42.6255 79.2511,89.2458 123.28076,124.6419 76.67786,61.6424 168.5156,111.8194 272,148.6114 49.2622,17.5143 94.5117,29.8303 140.5,38.2412 25.3805,4.6419 25.4399,4.6583 25.7983,7.1264 0.164,1.1298 -0.286,2.5164 -1,3.0814 -2.5647,2.0294 -33.8936,3.3016 -77.7983,3.1591 -24.475,-0.079 -49.675,-0.5207 -56,-0.9805 z m 86.5,-6.7824 4,-0.7863 -2.8151,-1.1561 c -1.5483,-0.6359 -3.3483,-1.1565 -4,-1.157 -3.1797,0 -51.7322,-12.6153 -70.9209,-18.4238 -161.1809,-48.7902 -301.67572,-132.6736 -401.13843,-239.5026 -15.51913,-16.6685 -32.87348,-36.6551 -38.88711,-44.7854 -2.78116,-3.76 -5.639,-5.5901 -20.23846,-12.9601 C 561.65529,1970.2654 432.79872,1856.8423 348.76308,1733 c -9.84268,-14.505 -27.87011,-43.8392 -34.27712,-55.7757 -5.03183,-9.3744 -5.16542,-8.7566 -7.62731,35.2757 -1.73846,31.0934 -1.76755,134.9246 -0.0462,165 1.29747,22.6698 3.32918,50.3177 5.35715,72.9013 l 1.15851,12.9013 4.46572,5.0987 c 19.91823,22.7414 61.73758,63.7651 92.82111,91.0551 194.67552,170.9168 442.95693,274.873 702.38506,294.0908 38.7727,2.8721 106.2814,4.3634 115.5,2.5513 z M 697,2028.6492 c 0,-0.743 -2.41466,-4.7161 -5.3659,-8.8293 -36.401,-50.7324 -68.74747,-112.2986 -90.66279,-172.5618 -17.75137,-48.8131 -31.04277,-104.1337 -37.91586,-157.8109 -8.97556,-70.097 -8.81945,-139.2382 0.48644,-215.4472 9.82095,-80.4269 32.37098,-169.4503 62.5923,-247.1028 l 8.08614,-20.777 -8.55962,-22.8101 c -24.20982,-64.5155 -43.6859,-132.9249 -57.09745,-200.55378 -4.32084,-21.78821 -10.94233,-61.76283 -13.12821,-79.25632 -0.89341,-7.15 -1.95242,-13.34813 -2.35335,-13.77363 -1.22032,-1.2951 -3.35802,1.95603 -15.30307,23.27363 -79.12524,141.2101 -139.38962,292.8337 -178.6584,449.5 -23.04994,91.9598 -41.7835,203.8305 -47.64158,284.5 l -0.61726,8.5 7.69828,14 c 36.98409,67.2588 82.22103,126.3819 143.88764,188.056 57.93616,57.9432 118.30309,105.5321 183.55269,144.6997 16.984,10.1951 48.73264,27.719 50.25,27.7359 0.4125,0 0.75,-0.5995 0.75,-1.3424 z M 304.05702,1940.938 c -3.81929,-37.274 -6.04371,-90.9769 -6.04489,-145.938 -0.001,-47.5101 0.72725,-70.7207 3.57831,-114.0439 l 1.61522,-24.5439 -10.21454,-21.4561 c -53.02889,-111.3895 -91.01241,-235.5493 -115.29536,-376.8753 -2.30767,-13.4306 -4.64576,-24.565 -5.19576,-24.7431 -2.23129,-0.7228 -4.83538,6.8124 -7.14073,20.6623 -9.67837,58.1451 -18.01688,131.315 -21.82353,191.5 -4.88413,77.2204 -4.8861,166.5326 -0.005,241 2.89321,44.1425 1.24344,36.9192 13.4385,58.839 34.91613,62.7595 76.91938,124.1334 122.95699,179.661 16.17638,19.5109 23.26864,27.2055 24.20911,26.265 0.51876,-0.5188 0.48628,-4.8201 -0.078,-10.327 z M 136.98445,1701.25 c -0.009,-1.5125 -0.66202,-13.1 -1.45214,-25.75 -7.53835,-120.6901 -2.05247,-250.363 16.01265,-378.5 1.89974,-13.475 3.45429,-25.0625 3.45456,-25.75 0.002,-5.1742 -5.71588,6.0374 -19.61867,38.4682 -21.6231,50.44 -40.557667,104.828 -54.773227,157.3317 C 74.674025,1488.965 65,1529.7745 65,1532.89 c 0,5.0165 20.886976,62.3758 34.269473,94.11 14.633917,34.7017 34.814707,77 36.737207,77 0.54632,0 0.98632,-1.2375 0.97777,-2.75 z M 305,1636.4703 c 0,-0.8413 1.1199,-11.9788 2.48868,-24.75 C 334.45265,1360.1357 412.48656,1118.0245 537.04163,899.5 l 14.81954,-26 -0.85357,-7.5 c -1.00944,-8.86965 -3.62375,-41.0108 -4.57528,-56.25 C 545.90075,801.23655 545.45369,799 544.28355,799 541.2829,799 492.68852,837.19533 463.5,862.49612 351.47785,959.5976 258.17406,1074.5814 188.56078,1201.3202 l -9.78802,17.8202 2.2015,14.1798 c 19.81866,127.6518 54.75633,252.6484 99.83494,357.1798 8.12227,18.8345 20.04204,44.6158 21.36435,46.2091 1.44844,1.7453 2.82645,1.6289 2.82645,-0.2388 z m 2012.9011,-76.9356 c 3.6101,-9.6488 14.7773,-46.4807 20.4913,-67.5846 37.6356,-139.0032 49.0643,-284.9274 33.5168,-427.9501 -5.4899,-50.502 -14.3691,-100.50577 -27.0336,-152.24176 l -6.0566,-24.74177 -13.6595,-11.34122 C 2217.1893,786.02964 2091.2902,709.4297 1960,653.50369 1934.2521,642.53577 1902.446,630 1900.3659,630 c -2.2518,0 -1.5384,1.31529 7.3685,13.58441 33.3878,45.9914 67.8793,101.32302 94.7162,151.94462 4.5636,8.60819 5.2342,9.35393 14.3877,16 53.4066,38.77667 104.0155,86.33488 144.6931,135.97097 74.709,91.1624 125.854,199.7175 148.8812,316 8.5632,43.2428 12.548,78.1869 14.6649,128.6052 1.9748,47.0304 -1.9823,113.3009 -9.637,161.3948 -0.7879,4.95 -1.4343,9.8141 -1.4365,10.809 -0.01,3.0832 1.7731,0.9026 3.8971,-4.7743 z M 61.433376,1513.75 c 0.203833,-0.6875 2.709381,-10.915 5.567885,-22.7277 18.815879,-77.7564 48.162579,-159.1366 84.891939,-235.4104 l 8.85964,-18.3983 3.70559,-20.4181 3.7056,-20.4182 -2.56212,-20.9386 C 154.96266,1088.4906 150.65404,1014.9365 150.63893,920 c -0.0123,-77.33017 1.92881,-122.37949 9.01632,-209.25 0.73726,-9.03649 -0.28419,-9.89171 -5.15525,-4.31628 -1.65,1.88859 -9.10072,10.32611 -16.55717,18.75004 -22.1823,25.06051 -46.495831,55.00071 -65.638774,80.829 -7.833824,10.56965 -9.220919,14.14952 -19.841495,51.20766 -20.619966,71.9488 -34.560406,148.76318 -40.884246,225.27958 -5.2720331,63.7899 -4.5309644,142.4845 1.954031,207.5 6.895518,69.1312 20.191668,138.2526 39.62291,205.984 2.75876,9.6162 5.228969,17.8287 5.489353,18.25 0.734602,1.1886 2.377396,0.9035 2.788767,-0.484 z M 186.59343,1189.6994 c 20.83718,-37.5671 54.82193,-90.4022 81.40679,-126.5607 C 340.37613,964.6991 427.44745,876.85369 527.5,801.33195 l 17,-12.83195 0.10287,-46 c 0.12369,-55.31439 1.97752,-89.94102 7.4685,-139.5 4.73456,-42.73187 12.72147,-90.3818 22.03029,-131.43283 1.83197,-8.0788 2.57959,-13.28592 1.99194,-13.87357 -0.58766,-0.58766 -12.53633,-0.50032 -31.83542,0.23272 -41.3407,1.57023 -67.16018,3.53735 -68.82185,5.24334 -2.05954,2.11449 -27.89912,42.36522 -41.76991,65.06567 C 319.46657,715.13085 236.66885,920.42648 188.14572,1137 c -10.88234,48.5712 -13.12293,61.2899 -11.52894,65.4437 0.99321,2.5883 2.63662,0.489 9.97665,-12.7443 z M 644.01557,1184 c 11.14728,-25.9237 33.45444,-68.7758 52.31642,-100.5 C 822.06261,872.03193 1028.9919,717.27466 1264.5,658.58123 1278.5895,655.06984 1320.4628,646 1322.5846,646 c 0.2285,0 0.4154,-0.58972 0.4154,-1.3105 0,-2.40967 -59.2853,-32.75788 -101,-51.70203 -44.4892,-20.20412 -92.4558,-39.39323 -98,-39.20504 -4.9468,0.1679 -46.0923,8.31913 -74.5,14.75899 -125.31431,28.40802 -251.6984,76.7227 -364.88069,139.48824 L 665.73862,718.5 l -9.05025,11.94883 c -24.68379,32.5894 -60.38036,84.9984 -84.09898,123.47247 -14.64396,23.75402 -13.82423,19.86022 -10.06497,47.80991 12.35175,91.83397 34.36633,181.15349 66.48991,269.76879 3.98757,11 7.71446,20.5851 8.28199,21.3002 1.51038,1.9031 2.8986,0.085 6.71925,-8.8002 z m -469.63958,-18.75 c 0.28093,-0.9625 3.04165,-13.225 6.13495,-27.25 50.97567,-231.12332 144.88651,-456.95244 271.26863,-652.32469 14.10743,-21.80848 14.73368,-23.55698 7.98361,-22.29066 -6.33792,1.189 -65.03543,38.14169 -100.76318,63.4349 -59.00883,41.77488 -110.30214,84.87601 -163.75666,137.60267 -19.73581,19.46709 -25.47977,25.70535 -26.2417,28.5 -1.62059,5.94408 -6.17892,66.62198 -9.05821,120.57778 -1.70171,31.88867 -2.35132,144.61286 -1.04307,181 1.36705,38.0228 3.37386,72.3352 6.11185,104.5 2.07301,24.3529 5.57571,59.0801 6.5309,64.75 0.59527,3.5334 2.01931,4.2875 2.83288,1.5 z M 2334,870.63004 c 0,-2.87929 -15.8508,-51.73116 -17.7257,-54.63004 -2.4753,-3.82744 -24.2032,-29.61698 -39.1294,-46.4441 C 2173.9222,653.18733 2050.4523,553.00937 1913.5,474.51064 c -88.6181,-50.79441 -176.8276,-90.1075 -276.2696,-123.12748 -29.9882,-9.95767 -35.797,-11.52072 -35.0637,-9.43508 0.1833,0.52145 8.0919,6.59054 17.5747,13.48687 56.7848,41.29662 101.4913,79.70457 154.8265,133.01377 41.6455,41.6251 68.3551,71.45366 102.5736,114.55128 10.8504,13.66587 11.8246,14.60886 16.9356,16.3924 10.358,3.61458 52.5452,20.39029 69.4358,27.6111 126.1758,53.94073 246.4507,126.05894 351.0058,210.46714 14.2552,11.50838 19.4813,15.03853 19.4813,13.1594 z M 572.28295,840.4675 c 16.64319,-26.51053 38.15333,-58.61115 56.39854,-84.1663 16.82602,-23.56737 17.74756,-25.06217 14.74212,-23.91272 -5.84098,2.23393 -71.81104,45.25719 -84.92361,55.38407 l -5,3.86152 0.22529,11.43296 c 0.23427,11.88841 2.95772,50.70138 3.84202,54.75401 0.27855,1.27657 1.03502,2.14485 1.68104,1.92951 0.64602,-0.21534 6.51159,-8.89271 13.0346,-19.28305 z M 1989.3731,786.74966 c -9.3402,-18.43215 -39.5857,-68.54297 -58.697,-97.24966 -21.1772,-31.80982 -45.2942,-64.69008 -48.8412,-66.58837 -3.9174,-2.0965 -47.9473,-16.9399 -72.3349,-24.38558 -156.4141,-47.75417 -316.7521,-69.8641 -475.2345,-65.53281 -62.2956,1.70252 -116.592,6.25171 -172.0565,14.41562 -16.1363,2.37514 -19.0826,3.15007 -17.5461,4.61509 0.4604,0.43903 8.7121,3.93927 18.3371,7.77833 50.6267,20.19313 111.6644,48.83896 156,73.21295 17.4667,9.6025 18.7514,10.14004 23,9.62379 2.475,-0.30074 13.275,-1.66648 24,-3.03499 93.2896,-11.90369 190.8136,-8.26615 282,10.51831 113.0864,23.29587 239.1217,74.923 331.3455,135.72718 5.965,3.93279 11.248,6.90173 11.74,6.59763 0.492,-0.30409 -0.2785,-2.86796 -1.7124,-5.69749 z M 2308,790.6081 c 0,-0.21554 -2.1917,-6.17804 -4.8705,-13.25 C 2223.4968,567.12962 2085.5465,383.37944 1906,248.38065 c -31.7456,-23.8691 -36.1853,-26.67114 -47,-29.66279 -52.0099,-14.38745 -106.4343,-24.07832 -164.5,-29.29103 -24.3595,-2.18681 -97.8832,-3.0635 -125.3619,-1.4948 -44.2521,2.52626 -91.3181,8.50018 -134,17.00817 -34.1512,6.80752 -51.1381,10.95398 -51.1381,12.4827 0,0.69157 7.9875,4.97658 17.75,9.52224 51.77,24.10538 114.4255,58.77882 158.75,87.85193 l 16,10.49465 20.5,5.86576 c 53.8999,15.42264 122.8973,40.84531 183.308,67.54136 29.7699,13.15558 89.9861,43.14191 118.192,58.85701 150.697,83.96171 284.8437,192.27754 393.2626,317.53722 C 2303.2838,788.40389 2308,792.91025 2308,790.6081 z M 83.010286,779.76416 C 97.827462,760.23405 125.30439,727.64638 146.8923,704 c 5.7744,-6.325 11.49511,-12.625 12.71269,-14 1.95142,-2.20372 2.4687,-4.98879 4.3647,-23.5 1.183,-11.55 3.9233,-35.175 6.08957,-52.5 4.53439,-36.26439 4.49352,-35.70366 2.4803,-34.03283 -5.57474,4.62662 -45.84748,81.4452 -62.89191,119.96372 -12.842027,29.02155 -30.497006,73.17679 -33.71405,84.31911 -1.398143,4.84251 1.294256,3.13582 7.076686,-4.48584 z M 573.76905,768.10699 c 20.93397,-14.4094 46.6727,-30.90344 70.85599,-45.40633 8.86878,-5.31866 16.8395,-10.76069 17.71272,-12.0934 0.87323,-1.33271 10.54283,-13.60204 21.48802,-27.26518 40.99591,-51.1762 68.22889,-81.51308 116.61522,-129.90653 20.38245,-20.38545 44.034,-43.29886 52.559,-50.9187 21.09531,-18.85545 20.57827,-18.33858 19.46173,-19.45512 -2.17272,-2.17272 -67.51935,-12.27139 -110.00883,-17.00076 -49.65495,-5.52693 -86.78542,-7.87058 -138.4529,-8.73903 -31.53622,-0.53007 -37.68329,-0.407 -38.65251,0.77387 -1.17544,1.43212 -7.15391,27.64241 -11.82231,51.83032 C 562.96702,564.63008 555.73861,625.65158 553.02342,683 c -1.13318,23.93422 -1.39839,96.2917 -0.35675,97.33333 C 553.03333,780.7 553.7169,781 554.18571,781 c 0.46881,0 9.28131,-5.80185 19.58334,-12.89301 z M 700.74658,690.96267 C 824.83092,624.54945 958.34606,577.66234 1102.25,549.96492 c 5.9618,-1.14748 7.0395,-2.20443 3.9394,-3.86354 -3.417,-1.82873 -45.3398,-16.1311 -65.0116,-22.17935 -47.79878,-14.69608 -103.11948,-28.67042 -148.39515,-37.48551 l -8.71735,-1.69725 -11.76025,10.38037 C 810.50798,549.66575 748.30774,614.91139 694.66724,681.45482 682.73992,696.2512 679.5399,701 681.49658,701 c 0.27312,0 8.93562,-4.5168 19.25,-10.03733 z M 195.89784,653.7094 c 69.46109,-68.54416 140.79208,-124.27747 231.67939,-181.0189 4.59528,-2.86886 7.33869,-5.17458 6.799,-5.71427 -1.77405,-1.77405 -64.61505,7.29391 -108.37623,15.63871 -34.02194,6.48762 -96.33344,20.89994 -105.61098,24.42725 -2.4704,0.93925 -32.6884,45.63974 -34.91404,51.64718 -1.64004,4.42681 -7.06984,44.00921 -11.83984,86.31063 -3.07448,27.26512 -3.3527,32 -1.88031,32 0.29747,0 11.16183,-10.48077 24.14301,-23.2906 z M 1872,609.67484 c 0,-2.6906 -34.0231,-43.50122 -60.7359,-72.85265 C 1745.0223,464.03734 1664.9578,394.30125 1585.5,340.18196 l -12,-8.17329 -22.0945,-5.90301 c -106.0032,-28.32103 -214.3843,-44.86363 -325.5071,-49.68333 l -15.6017,-0.67669 -14.8983,6.74147 c -75.8066,34.30226 -158.498,83.54446 -229.80983,136.85026 C 931.68588,444.67974 894,475.29247 894,477.48969 c 0,1.68232 -0.37683,1.57187 20.5,6.00866 66.91827,14.22164 126.5349,31.23054 192.9989,55.06347 l 18.999,6.81271 11.501,-1.72517 c 51.1513,-7.6727 91.3941,-12.24169 133.0011,-15.10034 192.4392,-13.22175 388.1619,11.86246 573,73.43681 14.575,4.85531 26.8375,8.86976 27.25,8.921 0.4125,0.0512 0.75,-0.50315 0.75,-1.23199 z M 246.79034,492.55476 C 305.33816,477.85888 364.32264,467.17814 431.5,459.10807 l 24,-2.88314 12.65492,-7.37674 12.65493,-7.37673 13.76035,-19.48573 c 46.31184,-65.58115 96.24325,-127.32299 148.65394,-183.8155 l 17.00537,-18.32977 10.4497,-21.10809 c 12.56585,-25.38264 23.19695,-45.31282 36.58937,-68.59429 7.82939,-13.61066 9.68955,-17.54887 8.60934,-18.22717 -0.75785,-0.47589 -2.05292,-0.66163 -2.87792,-0.41276 -0.825,0.24887 -4.425,0.54582 -8,0.65988 -7.59725,0.24239 -16.99887,4.23679 -54.75449,23.26313 C 510.42976,205.87909 387.38734,302.37711 285.4729,421.5 270.1526,439.40716 256.92113,455.93478 240.82165,477.27453 229.54314,492.2241 226.56961,497 228.54034,497 c 0.29718,0 8.50968,-2.00036 18.25,-4.44524 z m 651.3804,-29.36279 c 75.92774,-63.4398 152.58116,-114.99645 236.68286,-159.19147 12.4555,-6.54531 29.5209,-15.14964 37.923,-19.12073 8.4021,-3.97109 15.1112,-7.70608 14.909,-8.29997 -0.4637,-1.36215 -61.9994,-1.07271 -92.1856,0.43361 -160.97125,8.0326 -315.4714,41.55646 -461,100.02902 -34.71524,13.94838 -31.03822,11.64745 -33.95102,21.24523 -5.53348,18.23296 -13.4694,49.19084 -12.78191,49.86197 0.40311,0.39353 12.20793,0.98851 26.23293,1.32219 72.03114,1.71373 122.40739,5.4438 183.99847,13.624 22.22351,2.95161 76.11074,11.70637 76.9182,12.49647 0.22916,0.22424 2.106,0.40771 4.17074,0.40771 3.34547,0 5.42257,-1.39408 19.08333,-12.80803 z M 513.5,451.94211 c 10.45,-0.61124 29.30209,-1.41076 41.89354,-1.77672 18.83909,-0.54755 23.03829,-0.93104 23.71088,-2.16539 1.86926,-3.4305 14.03768,-51.2579 13.24333,-52.05225 -0.48125,-0.48125 -6.81174,1.79153 -14.35435,5.15352 -15.43701,6.88079 -68.9433,33.33234 -82.74939,40.90827 -13.45907,7.38551 -16.18102,12.76965 -5.87312,11.6173 2.82101,-0.31536 13.67911,-1.07349 24.12911,-1.68473 z m 14.2569,-34.80231 c 15.2587,-7.62311 36.5181,-17.81899 47.2431,-22.65752 10.725,-4.83852 20.04248,-9.21492 20.70551,-9.72532 0.66302,-0.5104 3.74746,-8.87701 6.8543,-18.59248 10.10746,-31.60729 25.56653,-72.85184 39.36878,-105.03531 3.3897,-7.90395 5.91569,-14.61823 5.61331,-14.92061 -0.87354,-0.87354 -4.76,3.08638 -22.04255,22.45923 -37.47178,42.00392 -76.25407,90.29364 -111.37128,138.6738 C 500.87417,425.60118 497.53764,431 499.5069,431 c 0.27879,0 12.99129,-6.23709 28.25,-13.8602 z M 664,357.71561 c 160.06186,-59.7965 329.42873,-89.69705 508.1614,-89.71238 l 37.6614,-0.003 8.3386,-3.59579 c 38.3646,-16.54365 78.3326,-30.67488 133.7761,-47.29838 1.3406,-0.40196 2.6093,-1.24615 2.8192,-1.87599 0.4441,-1.3322 0.3518,-1.37357 -31.7567,-14.23701 -122.5161,-49.08286 -253.5353,-79.78401 -386,-90.44963 -35.69801,-2.87428 -60.87388,-3.8368 -103.04356,-3.93955 -37.96523,-0.0925 -42.80791,0.0737 -45,1.54444 -10.26298,6.8857 -61.98077,54.78429 -95.45644,88.40729 l -27,27.11883 -6.90597,15.41289 c -17.86212,39.86503 -34.10828,81.23484 -46.35925,118.05083 -3.59412,10.80087 -6.27056,20.32644 -5.94764,21.16795 0.48274,1.25801 4.02053,0.14489 19.89999,-6.26127 10.62208,-4.2852 27.18787,-10.73325 36.81287,-14.329 z m 881.2685,-43.5636 c -3.9926,-3.41839 -43.0113,-26.80795 -65.2685,-39.12484 -34.5409,-19.11455 -106.7619,-54.27882 -111.4729,-54.27592 -9.5992,0.006 -103.6212,31.34413 -132.9093,44.29966 -8.3808,3.70723 -6.2486,4.48557 14.8822,5.4325 61.141,2.73994 144.3013,13.51334 213.5,27.65891 22.8266,4.6662 64.058,14.10782 75.5,17.2888 2.75,0.76452 5.9,1.41199 7,1.43882 1.6871,0.0412 1.4945,-0.38405 -1.2315,-2.71793 z m -162.46,-105.10286 c 103.7199,-26.17817 212.7361,-35.33719 315.1915,-26.48089 44.45,3.84228 93.7224,11.8227 134.9351,21.85482 5.7392,1.39708 10.6409,2.33429 10.8925,2.0827 1.0948,-1.09484 -3.2657,-4.23042 -22.6848,-16.3123 C 1591.6805,47.430321 1321.1427,-14.408923 1055,15.069367 1001.673,20.975931 949.65127,30.35465 897,43.554346 853.50825,54.457747 857.78684,52.664373 837.39929,68.536056 814.68788,86.21687 802,96.785381 802,98.022298 c 0,0.614796 11.04267,0.98152 29.75,0.987989 152.64898,0.05278 306.76,26.954683 450.75,78.683763 20.8253,7.48157 60.471,23.14623 75,29.63372 5.5,2.45585 10.8138,4.51177 11.8085,4.56871 0.9947,0.0569 7.0697,-1.22436 13.5,-2.84733 z M 702.39656,177.24639 C 722.65858,157.33696 753.13986,129.01585 767.2382,117 c 4.19459,-3.575 7.65696,-7.0625 7.69416,-7.75 0.0862,-1.59309 -10.29287,-1.64793 -31.16194,-0.16465 -11.88194,0.84452 -15.63759,1.45474 -16.92511,2.75 -3.40294,3.42343 -42.54256,73.97776 -45.81823,82.59342 -0.6899,1.81457 -0.64745,2.57123 0.14423,2.57123 0.617,0 10.16836,-8.88912 21.22525,-19.75361 z m 68.97726,-76.91428 15.87382,-0.655033 9.12618,-7.642366 C 801.39322,87.83141 811.0125,79.980832 817.75,74.588983 829.59105,65.112891 831.56902,63 828.59894,63 826.35215,63 781.14385,78.586556 761.5,86.133838 737.9601,95.178003 734.58806,96.876797 734.15981,99.907485 l -0.34019,2.407485 10.84019,-0.66391 c 5.96211,-0.36515 17.98341,-0.95868 26.71401,-1.31895 z"
       id="path2993"
       style="fill:#82a9be" />
    <path
       d="m 1158.8814,2363.548 c -0.3187,-0.3186 -9.0849,-1.0266 -19.4804,-1.5732 C 905.49328,2349.675 678.86861,2269.5257 491,2132.6577 302.0244,1994.9833 157.37154,1804.5657 75.725209,1586 36.426753,1480.7988 12.073683,1370.2713 4.5570051,1263 3.6898682,1250.625 2.5471859,1235.775 2.0177111,1230 -1.9736605,1186.466 1.6104195,1097.6255 10.045947,1031 37.220766,816.36764 122.13539,614.3907 255.69013,446.7136 427.08799,231.52471 672.37824,81.602646 944.6557,25.615981 996.75394,14.903354 1054.2724,7.0712709 1103,4.0548029 c 9.625,-0.5958328 22,-1.5953675 27.5,-2.2211882 13.3273,-1.51645034 96.6727,-1.51645034 110,0 5.5,0.6258207 17.875,1.6253554 27.5,2.2211882 63.9346,3.9578517 137.7537,15.4907921 204.7885,31.9946161 C 1845.686,127.85593 2148.7624,387.0047 2295.479,739.5 c 29.0268,69.73844 52.2233,145.88764 67.0162,220 11.2974,56.5997 17.0689,101.7915 21.647,169.5 1.6708,24.7098 2.2527,87.1302 0.9649,103.5 -0.6058,7.7 -1.5781,22.1 -2.1607,32 -6.1174,103.95 -29.7757,218.1644 -65.974,318.5 -14.8606,41.1913 -15.9576,43.4434 -19.4556,39.9453 -1.361,-1.361 -1.3096,-2.4884 0.4899,-10.7332 3.66,-16.7698 8.8283,-46.4084 11.8945,-68.2121 21.208,-150.8077 4.1315,-294.4535 -50.1076,-421.5 C 2213.2667,1013.5178 2139.0753,917.1343 2041.9495,839.49422 1958.6041,772.86986 1859.5593,720.73572 1745,683.18913 c -179.7763,-58.92138 -365.6571,-58.51019 -544.5,1.20449 -117.1627,39.12001 -223.07365,100.54686 -318,184.43554 -17.56616,15.52364 -64.17846,62.41308 -79.19994,79.67084 -89.18317,102.4601 -154.12803,218.4084 -193.25095,345.0176 -25.35558,82.0555 -38.98018,153.2967 -45.22632,236.4824 -1.62184,21.5996 -1.6183,87.8656 0.006,109 10.46041,136.1187 48.02463,249.4925 117.62238,355 87.59561,132.7915 222.1114,237.8728 389.56653,304.3222 68.4259,27.1527 124.1483,42.9427 199.3808,56.4984 4.3751,0.7883 6.7856,3.3955 4.8911,5.29 -0.6604,0.6604 -6.9369,1.5744 -14.4776,2.1084 -15.273,1.0815 -102.0574,2.2021 -102.9304,1.329 z m 74.4437,-8.048 c -0.2028,-1.1595 -2.5453,-1.8159 -26.8251,-7.5165 -69.1606,-16.2381 -147.0585,-44.739 -214.5124,-78.4849 -107.55419,-53.8072 -196.54275,-122.9894 -267.35822,-207.8517 l -14.06349,-16.8531 -16.92236,-8.4723 C 637.92789,2008.4273 577.81501,1968.5799 525,1924.532 478.77485,1885.98 430.58901,1837.6011 394.49096,1793.5 c -25.09535,-30.6591 -54.15679,-72.1848 -71.03392,-101.5 -11.37427,-19.7569 -12.47434,-21.3827 -13.66338,-20.1937 -1.43842,1.4385 -3.46825,36.4249 -4.86891,83.9211 -1.63887,55.5737 0.0329,112.7696 5.1229,175.2726 2.9663,36.4245 1.20202,31.2405 15.97997,46.9541 128.13614,136.2488 279.70776,237.3728 453.47238,302.543 111.61187,41.8598 232.0354,67.6321 348,74.4768 9.9,0.5843 20.25,1.2007 23,1.3697 12.9858,0.7981 82.9875,0.085 82.8251,-0.8436 z M 698,2028.9528 c 0,-0.576 -4.21402,-6.9885 -9.36449,-14.25 C 621.85753,1920.5543 579.07166,1809.043 563.48098,1688.5172 556.1801,1632.0768 555.10922,1565.415 560.54896,1506 c 8.52125,-93.0728 32.79102,-195.0502 67.038,-281.6824 3.52717,-8.9225 6.41304,-17.0799 6.41304,-18.1276 0,-1.0477 -2.96109,-9.7316 -6.58019,-19.2975 -33.46524,-88.4541 -58.36156,-186.4356 -70.82912,-278.75366 -1.36382,-10.09864 -2.71025,-18.59173 -2.99205,-18.87354 -1.46352,-1.46351 -3.98994,1.97535 -12.75903,17.36706 C 463.39102,1042.572 401.19114,1196.8452 361.47787,1351.5 c -24.16561,94.1078 -39.28693,180.5002 -49.53367,283 l -1.8994,19 5.2276,10.4593 c 6.97219,13.95 25.46652,44.8034 38.01104,63.4125 77.85886,115.4993 198.31248,224.8041 321.89274,292.0994 18.38164,10.0096 22.82382,11.855 22.82382,9.4816 z M 304.621,1943.25 c -5.10297,-66.2425 -5.96695,-87.4936 -5.98656,-147.25 -0.0168,-51.1103 0.89652,-80.0727 3.8143,-120.9592 l 1.3173,-18.4591 -9.29579,-19.5409 c -13.67084,-28.7376 -21.41444,-46.475 -32.97893,-75.5408 -37.0292,-93.068 -64.27461,-192.4411 -83.42585,-304.2818 -2.19268,-12.8049 -4.26051,-23.7248 -4.59518,-24.2663 -0.91708,-1.4838 -2.28229,-0.2407 -4.49162,4.0899 -1.21061,2.373 -3.14917,11.0793 -4.93911,22.1822 -23.58459,146.2931 -30.41816,291.2476 -20.52017,435.276 2.31411,33.6732 1.5194,30.3697 11.73018,48.7603 37.97484,68.3964 82.67251,132.9216 134.03357,193.4897 7.11251,8.3875 13.62485,15.25 14.47187,15.25 1.32075,0 1.44406,-1.246 0.86599,-8.75 z M 136.47497,1682.5 c -8.15541,-126.535 -2.05654,-268.2419 17.06479,-396.5 1.35294,-9.075 2.45997,-16.6125 2.46007,-16.75 9e-5,-0.1375 -0.6612,-0.25 -1.46955,-0.25 -1.62337,0 -4.50951,5.8748 -16.70323,34 -30.65602,70.709 -53.753426,141.3059 -70.212852,214.6045 l -3.616315,16.1045 5.419442,15.8955 c 15.806102,46.3601 33.526025,89.6143 54.237295,132.393 10.54838,21.7875 12.15613,24.5933 13.38493,23.3594 0.47122,-0.4732 0.21839,-10.7088 -0.56458,-22.8569 z m 168.94013,-45.75 c 0.24926,-1.2375 0.94342,-7.65 1.54258,-14.25 3.05136,-33.6121 9.50629,-81.6364 16.56327,-123.2297 36.03526,-212.3891 109.47831,-417.4468 216.19361,-603.62628 l 12.52752,-21.85597 -1.59064,-16.64403 C 549.77659,847.98981 548.56732,832.4 547.96418,822.5 546.62257,800.47892 546.27791,798 544.55781,798 c -0.74336,0 -8.26047,5.25664 -16.70469,11.68143 C 384.87749,918.4645 270.16249,1051.1879 185.63497,1205.6223 181.05551,1213.9891 179,1218.8205 179,1221.2177 c 0,4.5515 7.74769,50.6364 12.99252,77.2823 23.74502,120.6343 58.5335,229.8357 104.49001,327.9952 6.14005,13.1147 7.94025,15.1813 8.93257,10.2548 z m 2012.892,-77.322 c 26.4465,-74.6933 48.3483,-178.2736 56.1239,-265.428 3.1797,-35.64 3.6945,-46.4662 4.256,-89.5 1.0091,-77.3298 -3.9484,-140.8151 -16.7501,-214.5 -5.6489,-32.51387 -19.7329,-95.15522 -22.9541,-102.09251 -1.2684,-2.73161 -21.2891,-19.48924 -48.9933,-41.00816 -109.1081,-84.74853 -231.4154,-154.71747 -361.7516,-206.94913 -18.7792,-7.52565 -28.5966,-10.99149 -29.2589,-10.32922 -0.6623,0.66228 3.0641,6.6811 11.1058,17.93786 32.6701,45.73194 60.8021,90.69831 86.6119,138.44116 5.2033,9.625 10.7005,18.625 12.216,20 1.5155,1.375 7.6676,6.08917 13.6714,10.47593 59.4061,43.40622 116.6022,100.23642 160.8211,159.79238 42.4704,57.20079 78.0841,125.17859 101.2346,193.23169 20.9426,61.5627 32.8404,120.8224 38.5484,192 1.6593,20.6916 1.657,96.6044 0,117.5 -2.2332,28.101 -7.1551,71.0417 -9.8433,85.8785 -1.1511,6.3526 2.0183,2.8739 4.9657,-5.4505 z M 63.804732,1505.4281 c 20.588748,-86.121 48.706168,-165.9147 86.197508,-244.6176 l 11.10431,-23.3105 3.80137,-20.6911 3.80136,-20.6912 -2.31763,-18.3088 C 149.28424,1042.6636 146.37493,889.4797 158.02919,737.5 c 2.65922,-34.67806 2.66089,-34.72292 1.31466,-35.19698 -2.94032,-1.03539 -52.53073,57.25125 -82.161358,96.56926 L 64.35293,815.89632 58.203414,836.19816 C -7.7145735,1053.818 -9.6663334,1277.2245 52.443516,1495.5 c 5.264235,18.5003 6.14914,20.8024 7.786454,20.2567 0.660698,-0.2203 2.269341,-4.8681 3.574762,-10.3286 z M 180.32378,1201.75 c 0.75344,-1.2375 6.08369,-10.575 11.84501,-20.75 42.07974,-74.3166 94.04827,-146.2501 154.51229,-213.87204 19.09259,-21.35283 68.20813,-70.67847 88.81892,-89.19885 31.60137,-28.39625 63.02006,-54.31665 92.71081,-76.48632 7.85905,-5.86825 15.00468,-11.47944 15.87916,-12.46932 1.40542,-1.59088 1.53585,-5.61117 1.12377,-34.63662 -1.30646,-92.02046 8.17018,-186.0282 27.77567,-275.53293 4.56117,-20.82307 4.65771,-21.75934 2.26059,-21.92449 -11.87521,-0.81817 -92.70522,3.03032 -98.25,4.67789 -2.6531,0.78834 -35.61854,52.19448 -60.24303,93.94268 -111.25023,188.61294 -192.26431,399.71145 -236.64002,616.6132 -5.03799,24.625 -5.60942,31.8868 -2.50916,31.8868 0.74036,0 1.96255,-1.0125 2.71599,-2.25 z M 647.51422,1177.5 C 769.93857,906.80387 1017.0102,708.00364 1302.4494,650.52218 c 11.5222,-2.32032 21.0997,-4.6695 21.2833,-5.22039 0.1837,-0.55089 -0.2436,-1.47274 -0.9494,-2.04855 -2.5995,-2.1207 -23.0341,-12.89491 -50.7833,-26.77568 -43.3729,-21.69607 -75.236,-35.92275 -121.2639,-54.14361 C 1122.6677,551.22265 1129.1655,551.5941 1092,558.9763 944.47239,588.27974 803.98285,639.96979 678.37944,711.15894 l -14.12055,8.00321 -12.96669,17.66893 c -27.81662,37.904 -54.74641,77.58981 -76.45429,112.66892 -17.73083,28.65234 -16.16624,24.83515 -14.84201,36.21048 9.06092,77.8348 28.32164,165.00732 53.53484,242.29462 7.91776,24.2707 22.23311,63.9496 23.73755,65.7951 1.64923,2.0231 2.75385,0.2658 10.24593,-16.3002 z m -467.39477,-35.7637 c 51.95888,-234.92933 144.15518,-457.46741 271.24258,-654.70957 7.96401,-12.36031 14.264,-22.82281 13.99998,-23.25 C 465.09799,463.34953 463.14932,463 461.03165,463 c -3.12859,0 -7.19448,2.0251 -21.69098,10.80363 C 369.69583,515.9779 305.23326,563.30038 247,615.00244 c -20.01214,17.76766 -55.84626,52.04623 -67.47424,64.5452 l -11.20811,12.04764 -0.64654,6.45236 c -3.0132,30.07107 -6.59348,82.05498 -8.88132,128.95236 -1.63927,33.60249 -1.62055,152.68503 0.0291,185 1.59087,31.164 3.75566,64.3834 5.73464,88 1.91751,22.8829 6.30897,65.0317 6.96331,66.8332 1.46635,4.037 3.41918,-1.6601 8.60264,-25.0969 z M 2333.9999,870.25 c -2e-4,-2.0506 -6.3419,-23.50126 -12.129,-41.0259 -4.4771,-13.55785 -4.096,-12.9782 -23.9019,-36.34838 C 2252.7671,739.53919 2190.8733,677.48164 2136,630.47798 2004.7146,518.0209 1847.7648,426.80707 1681,366.04762 1657.3559,357.43306 1604.7973,340 1602.4697,340 c -3.3247,0 -1.0271,2.94175 6.2803,8.04113 12.2656,8.55944 38.4425,28.24846 54.25,40.80437 79.4888,63.13788 152.6896,136.67071 214.7165,215.69041 l 10.2166,13.01544 18.2525,6.85327 c 144.5872,54.28818 290.5153,137.88685 409.3144,234.48632 8.8,7.15558 16.5625,13.03239 17.25,13.0596 0.6875,0.0272 1.2499,-0.73804 1.2499,-1.70054 z M 574.4546,837.94601 c 17.56759,-27.9054 35.70914,-54.93069 55.93058,-83.31926 8.56928,-12.03028 15.32386,-22.28852 15.01017,-22.79607 -0.31369,-0.50756 -3.09227,0.50045 -6.17464,2.24003 -17.2373,9.72813 -77.9593,50.09704 -84.43135,56.13125 -2.3803,2.21927 -2.8075,3.29113 -2.39135,6 0.27866,1.81392 0.77589,8.92304 1.10495,15.79804 0.76357,15.95319 3.43783,47.09519 4.14206,48.23465 0.29604,0.47901 1.01991,0.71037 1.60858,0.51415 0.58868,-0.19623 7.42913,-10.45748 15.201,-22.80279 z M 1992,791.81726 c 0,-3.20336 -31.9054,-57.7633 -51.9285,-88.80047 -12.7868,-19.82048 -31.4455,-46.7617 -46.0101,-66.4338 l -9.8736,-13.33621 -7.8439,-2.98376 c -15.6925,-5.96932 -66.4736,-22.36011 -91.9266,-29.67149 -169.8392,-48.78627 -343.4311,-67.26724 -516.9173,-55.03216 -35.598,2.51055 -80.7853,7.51488 -115.1804,12.75584 -12.5354,1.91008 -11.4911,2.97313 12.4008,12.62344 52.1348,21.05799 114.2789,50.29562 155.2189,73.02754 4.7084,2.61433 10.8107,5.92479 13.5607,7.35658 l 5,2.60326 13,-1.90517 c 42.4419,-6.21993 72.813,-8.30837 122,-8.38923 58.9125,-0.0969 102.6023,3.67552 156.5,13.5129 118.0757,21.55109 249.2629,73.82977 349.5,139.27725 10.0082,6.53461 12.5,7.61017 12.5,5.39548 z m 311.4778,-14.89421 C 2274.3974,698.65783 2230.8763,614.00649 2181.9275,540.5 2134.8902,469.8639 2092.0556,417.76804 2030.6084,356.46418 1998.0234,323.95524 1982.6665,309.84499 1952,284.23742 c -28.1153,-23.47727 -77.6624,-60.86966 -84,-63.39346 -5.2826,-2.10366 -49.3978,-12.9483 -68,-16.71613 -65.9253,-13.353 -127.8247,-18.99963 -195,-17.7884 -68.2197,1.23006 -130.1117,8.66679 -196.2918,23.58578 -24.5371,5.5314 -25.8868,5.93599 -25.5209,7.65024 0.172,0.80554 6.3877,4.2442 13.8127,7.64146 50.4375,23.07737 113.3216,57.6908 163.255,89.86085 l 17.0042,10.95509 19.1204,5.45397 c 120.0127,34.23285 253.4813,94.16488 367.1204,164.84979 124.0439,77.15682 241.1078,177.22209 332.4357,284.16339 5.1668,6.05 9.8824,11.32596 10.4792,11.72435 2.4294,1.62172 1.4446,-3.50865 -2.9371,-15.3013 z M 88.732555,773.1592 c 20.784555,-26.19888 41.830125,-50.8301 63.589505,-74.42361 l 9.9276,-10.76442 2.40392,-23.23558 c 1.32216,-12.77958 4.17103,-37.18304 6.33084,-54.22992 2.15981,-17.04688 3.57624,-31.34501 3.14762,-31.77363 -1.29678,-1.29678 -3.43646,1.90202 -15.56398,23.26796 -22.68557,39.96683 -49.47449,95.69273 -66.716272,138.78217 -14.317118,35.78032 -18.895875,49.59918 -15.800356,47.68604 0.578288,-0.3574 6.284793,-7.24646 12.681123,-15.30901 z m 473.924935,3.0852 C 582.29724,762.23048 628.35506,732.55833 651,719.33089 c 8.4724,-4.94893 8.57307,-5.05618 31,-33.02786 C 743.0612,610.14532 799.24584,550.72676 867.76349,489.84724 870.64357,487.28822 873,484.5245 873,483.70565 c 0,-1.84305 0.0107,-1.84043 -25,-6.12669 -66.84602,-11.45588 -131.68907,-17.96372 -205,-20.5744 -40.14426,-1.42958 -56.49166,-1.32199 -57.9051,0.38109 -1.21453,1.46342 -8.16434,31.88284 -12.47754,54.61435 -11.62257,61.25348 -18.0189,118.67029 -20.7207,186 -1.17967,29.39752 -0.85522,80.64 0.52472,82.87279 1.02747,1.66248 2.09846,1.17821 10.23611,-4.62839 z M 687.4039,698.6083 C 805.31634,633.00502 949.38767,580.69798 1087,553.52955 c 21.4844,-4.2416 22,-4.37218 22,-5.57126 0,-1.68332 -5.7671,-3.90827 -38.6858,-14.92508 -50.0517,-16.75066 -97.12475,-29.72639 -150.35559,-41.44565 -27.57667,-6.07126 -34.34049,-7.17901 -36.80063,-6.02702 -1.10347,0.5167 -8.45293,6.72705 -16.33214,13.80077 C 805.45672,554.45665 744.98546,618.22315 694.00145,681.60334 681.64806,696.96033 678.3501,702 680.6539,702 c 0.35965,0 3.39715,-1.52627 6.75,-3.3917 z M 193.4396,656.25 c 70.15053,-68.62512 140.22345,-123.88302 223.48991,-176.23902 10.13623,-6.37342 18.63373,-12.20071 18.88334,-12.94953 0.37024,-1.11072 -0.99813,-1.23089 -7.42951,-0.65243 -12.02465,1.08153 -48.42623,6.2507 -71.88334,10.20772 -48.81918,8.2354 -133.64358,27.43274 -137.88548,31.20606 -1.97652,1.75817 -27.39423,39.40766 -31.85002,47.1772 -2.20195,3.83954 -3.10819,8.31598 -6.17463,30.5 -3.40756,24.65185 -8.70097,68.49688 -10.17151,84.25 -0.51115,5.47566 -0.37248,7.25 0.56661,7.25 0.68387,0 10.78845,-9.3375 22.45463,-20.75 z M 1873,609.92844 c 0,-2.04229 -29.0799,-37.20615 -52.4543,-63.42844 -67.8588,-76.1268 -150.67,-149.16698 -232.4135,-204.99055 l -14.3678,-9.81194 -21.6322,-5.84736 C 1450.0394,298.25361 1338.8928,281.06446 1230.5,276.10878 c -20.8004,-0.95099 -20.1517,-1.07779 -39,7.62326 -66.9405,30.90218 -135.8359,70.85544 -198.5,115.11253 -40.62052,28.68861 -99.5,75.37845 -99.5,78.90083 0,1.1085 1.19004,1.93723 3.5,2.43738 88.55829,19.17442 141.654,33.99564 208.5738,58.22161 l 21.0738,7.62903 19.1741,-3.00547 c 52.9889,-8.30584 107.3408,-13.64549 164.1646,-16.12788 34.2879,-1.4979 123.3514,-0.62704 154.0137,1.50593 98.8242,6.87454 182.5699,20.06684 274.437,43.23155 40.7637,10.27876 98.4109,27.40726 122.063,36.26814 8.4085,3.1501 12.5,3.81219 12.5,2.02275 z M 248.79034,492.56689 c 59.89047,-14.99189 127.0055,-26.87175 192.50168,-34.07421 l 13.79201,-1.51668 12.20799,-7.09109 c 6.71439,-3.9001 12.72919,-7.51552 13.36621,-8.03428 0.63703,-0.51876 7.57321,-10.03487 15.41372,-21.14692 43.73822,-61.98839 97.82231,-128.94429 145.57202,-180.21764 7.07082,-7.5926 14.3576,-15.53771 16.19286,-17.65581 1.83526,-2.11809 8.01549,-13.31353 13.73384,-24.87875 12.12217,-24.51675 23.04224,-44.99774 36.09134,-67.69065 C 712.7979,121.32934 717,113.29984 717,112.41754 c 0,-1.41104 -1.17394,-1.51883 -9.75,-0.89523 -8.97759,0.65279 -10.70066,1.14528 -21.75,6.21665 -89.22629,40.95264 -182.43277,99.9578 -259.82947,164.48727 -26.89114,22.42048 -46.98821,40.96036 -77.73102,71.70816 C 315.05392,386.82531 301.13119,401.96782 275.24288,433 259.11181,452.33624 227,494.2699 227,495.99865 c 0,1.70137 3.4628,1.15602 21.79034,-3.43176 z M 892,468.86746 c 28.89074,-24.61906 73.08148,-58.56875 105.72905,-81.2267 57.34055,-39.79526 125.37525,-79.25325 182.02095,-105.56633 15.9913,-7.42828 15.9377,-7.43849 -35.5,-6.77166 -54.3964,0.70519 -84.7545,2.53212 -137.75,8.2897 -129.04954,14.02032 -259.57823,47.03843 -380,96.12356 -11.55,4.7079 -21.8041,9.31435 -22.78689,10.23656 -2.48307,2.33001 -17.48016,55.60612 -16.42617,58.35278 0.42435,1.10584 7.17453,1.50551 34.86964,2.06459 48.83124,0.98576 85.63283,3.17203 129.63266,7.70106 36.33347,3.73991 84.45755,10.61902 114.5772,16.37827 6.67346,1.27605 13.03356,2.36362 14.13356,2.41682 1.14716,0.0555 6.05099,-3.35531 11.5,-7.99865 z M 529,451.9938 c 15.125,-0.61945 32.67304,-1.43397 38.99564,-1.81004 L 579.49127,449.5 586.07305,425 c 3.61998,-13.475 6.91547,-25.51472 7.32332,-26.75493 1.90595,-5.79579 -4.28957,-3.47447 -49.89637,18.69503 -31.15744,15.14565 -56.55153,28.73345 -58.72776,31.4239 -0.95027,1.1748 -1.73777,2.98592 -1.75,4.02471 -0.0207,1.75823 0.61676,1.84873 9.22776,1.31004 5.0875,-0.31826 21.625,-1.08549 36.75,-1.70495 z m -2.2431,-33.85704 c 15.2587,-7.62479 36.9681,-18.02574 48.2431,-23.11324 11.275,-5.08749 20.86817,-9.58971 21.31816,-10.00491 0.44999,-0.41521 5.2431,-13.97676 10.65137,-30.13677 11.05034,-33.01862 20.93388,-59.34444 32.90684,-87.65072 C 647.86693,248.33995 648.94375,245 647.0438,245 c -0.5259,0 -7.91129,7.7625 -16.41197,17.25 -42.34264,47.25807 -82.39954,97.03763 -119.48581,148.48751 C 499.69916,426.61778 496.49979,432 498.5069,432 c 0.27879,0 12.99129,-6.23846 28.25,-13.86324 z M 634.54234,369.64488 C 767.02895,316.79288 907.63133,284.25222 1052,273.02954 c 39.6408,-3.08153 65.8917,-4.01587 113.0279,-4.02298 l 43.5278,-0.007 12.9722,-5.54368 c 32.6964,-13.97294 78.3331,-30.34314 114.4666,-41.06004 18.6078,-5.51891 21.2298,-6.63407 19.4555,-8.27477 -1.4649,-1.35466 -36.4511,-15.50069 -60.95,-24.64405 -112.0711,-41.82658 -232.3975,-68.85329 -351.5,-78.95094 -36.83174,-3.12264 -49.34464,-3.65117 -99.72969,-4.21246 -48.16829,-0.53659 -51.39525,-0.46328 -54,1.22673 -10.11663,6.56382 -53.92818,47.0563 -90.80784,83.92843 L 665.42493,224.5 l -3.89497,9 c -2.14224,4.95 -6.76133,15.525 -10.26465,23.5 -13.901,31.64439 -27.92258,68.28469 -39.69358,103.72473 C 606.37314,376.37663 605.67378,380 607.85136,380 c 0.40332,0 12.41426,-4.6598 26.69098,-10.35512 z M 1549,317.15499 c 0,-0.46476 -0.7875,-1.53477 -1.75,-2.3778 -4.6233,-4.04947 -44.7707,-27.88573 -73.75,-43.78678 C 1443.2573,254.39612 1372.417,220 1368.483,220 c -2.332,0 -38.5004,10.62728 -58.483,17.1839 -28.981,9.50916 -77.1051,27.6161 -79.45,29.89345 -0.6,0.58273 -0.6,1.24639 0,1.80138 0.5225,0.48331 13.1,1.63211 27.95,2.5529 89.7257,5.56353 180.46,19.51704 266.5,40.98349 23.559,5.87783 24,5.96492 24,4.73987 z M 1388.7662,208.07001 c 60.1185,-14.75133 122.1509,-23.82731 185.7338,-27.17476 27.6047,-1.45331 91.0088,-0.60136 117,1.57209 47.1114,3.93959 94.4356,11.31607 135.3636,21.09927 22.4073,5.35614 23.2067,4.66561 6.8864,-5.94841 C 1779.6966,162.46428 1712.902,127.44169 1649.5,101.00997 1520.6021,47.2736 1390.9832,17.518504 1248,8.842312 c -26.3821,-1.6008622 -99.6952,-1.5954201 -125.5,0.00932 -91.4547,5.687345 -170.487,18.611038 -252.90926,41.356803 -14.79062,4.081713 -14.98097,4.170861 -23.92045,11.203011 -23.42035,18.423378 -43.66297,34.767697 -44.26339,35.739194 -0.36472,0.590134 -0.11002,1.414813 0.56601,1.832619 0.67602,0.417807 22.67117,1.003083 48.87811,1.300611 47.56517,0.54001 69.55818,1.67576 111.14898,5.73987 134.8304,13.17516 274.2857,49.06433 396,101.91161 6.325,2.74625 12.175,4.79806 13,4.55956 0.825,-0.23849 8.8198,-2.2297 17.7662,-4.4249 z M 696.53207,183.42348 c 23.86167,-23.27675 44.0218,-42.19038 62.71793,-58.84008 9.2125,-8.20412 16.75,-15.51661 16.75,-16.24999 0,-0.87446 -1.29073,-1.33284 -3.75,-1.33175 -5.44803,0.002 -36.01215,1.91549 -40.99945,2.56625 l -4.24945,0.55447 -7.84302,13.18881 c -16.56884,27.86214 -40.59085,73.17956 -39.62213,74.74698 0.32015,0.51801 0.68246,0.94183 0.80513,0.94183 0.12268,0 7.40862,-7.00943 16.19099,-15.57652 z m 70.80707,-82.41464 19.83914,-0.93741 8.16086,-6.694624 C 799.82761,89.694765 809.6875,81.71807 817.25,75.650817 829.61758,65.728539 833.08312,62 829.93795,62 c -1.84037,0 -42.65328,13.957304 -61.67909,21.093175 -27.77521,10.41744 -32.7922,12.666349 -34.22365,15.341028 -2.09181,3.908577 -0.58698,4.818367 6.82942,4.128907 3.64945,-0.33927 15.56298,-1.03869 26.47451,-1.55427 z"
       id="path2991"
       style="fill:#6898b0" />
    <path
       d="m 1163.5,2363.0835 c 3.2762,-0.3946 -1.5505,-0.8523 -14,-1.3275 -136.2294,-5.2003 -279.21404,-36.9476 -410.83912,-91.2198 C 594.27115,2211.0008 462.11492,2122.9378 351.44356,2012.512 163.86314,1825.3476 44.048922,1582.1251 11.04304,1321.5 c -4.1046177,-32.4114 -7.8029432,-75.3886 -8.1750562,-95 -0.1171796,-6.1757 -0.2965135,-7.0879 -0.7864236,-4 -1.0615293,6.6907 -1.99972928,-46.1081 -1.29501925,-72.8794 C 1.1502326,1135.8043 1.7331864,1126.3 2.0819939,1128.5 c 0.4893901,3.0867 0.6688546,2.1734 0.7859899,-4 0.083487,-4.4 0.5987905,-14.525 1.1451192,-22.5 6.048562,-88.2935 19.86732,-167.50917 43.604738,-249.96296 C 128.2102,572.09315 308.0409,334.89626 556.5,180.82092 710.8512,85.104112 887.15063,25.371573 1068,7.5180746 c 20.1733,-1.9915123 55.2086,-4.4607444 66,-4.651575 6.3357,-0.1120371 7.4815,-0.3117938 4.5,-0.7845057 -6.7565,-1.071232 44.7056,-1.99592028 72.1206,-1.29588662 14.2337,0.36345312 24.0794,0.90861852 21.8794,1.21147882 -2.243,0.3087816 3.3658,0.867059 12.7691,1.2709884 22.0076,0.9453604 59.1553,4.1310976 84.7309,7.2664155 229.8566,28.178158 447.4779,121.50536 623.4782,267.37949 89.5115,74.18976 167.9552,161.20552 232.2102,257.58552 104.8335,157.24607 171.1917,338.41483 191.7467,523.5 3.3328,30.01 5.4425,57.2064 6.3222,81.5 0.4624,12.7692 0.9419,18.1923 1.3264,15 0.3311,-2.75 0.6021,12.55 0.6021,34 0,21.45 -0.271,36.75 -0.6021,34 -0.3905,-3.2424 -0.8605,1.8547 -1.3372,14.5 -4.0028,106.1817 -25.2317,220.4632 -60.0934,323.5 -6.8442,20.2289 -17.1791,48.6768 -20.9801,57.75 -1.5072,3.5979 -3.8714,4.8561 -5.1715,2.7524 -0.3391,-0.5487 1.1958,-10.1112 3.411,-21.25 13.991,-70.3517 18.7301,-121.9169 17.7869,-193.5374 -0.6635,-50.3827 -3.2348,-79.8552 -10.7718,-123.4684 C 2284.9627,1150.8599 2228.5727,1032.9112 2139.0441,930.5 2125.2129,914.67852 2088.7506,878.26702 2072.822,864.37021 1987.4987,789.93014 1888.1124,732.82543 1772.0051,691.52892 1686.4487,661.09861 1607.7559,644.91893 1521,639.92086 c -23.3406,-1.34466 -89.783,-0.71142 -110.5,1.05315 -53.3791,4.54656 -101.9118,12.62545 -150,24.96938 C 1122.6065,701.33978 997.52581,767.71174 886.31399,864.49884 868.12444,880.32913 819.4568,928.85016 804.06507,946.5 686.18,1081.6799 611.20688,1238.6204 578.0263,1419.6647 c -11.50647,62.7832 -15.59385,112.2519 -14.72479,178.2112 0.55187,41.8862 1.43334,55.6479 5.76359,89.9825 15.79988,125.2775 62.7465,241.9689 137.44726,341.6416 30.68192,40.9387 68.74058,81.6467 108.51197,116.0659 85.21196,73.7446 189.67707,132.0877 308.97567,172.5609 47.3448,16.0622 85.0681,25.9538 131.2945,34.4272 10.4155,1.9092 19.3352,3.7171 19.8214,4.0176 1.4226,0.8792 1.0177,3.1632 -0.676,3.8131 -0.8581,0.3293 -10.6456,0.9357 -21.75,1.3475 -12.9226,0.4793 -18.3901,0.9657 -15.1899,1.3512 2.75,0.3313 -13.9,0.6024 -37,0.6024 -23.1,0 -39.75,-0.271 -37,-0.6023 z m 70.3957,-5.9979 c 2.9373,-1.8598 0.144,-3.6293 -8.5187,-5.3964 -73.1198,-14.9155 -172.4555,-50.8539 -244.377,-88.4126 -105.98187,-55.3456 -190.84112,-123.0203 -260.93733,-208.0959 -8.93799,-10.848 -9.67272,-11.4793 -17.64752,-15.1637 -12.81234,-5.9193 -38.97833,-20.1644 -59.23012,-32.2456 -132.32377,-78.938 -256.59824,-203.7355 -325.15299,-326.5214 -6.08241,-10.894 -8.3262,-13.1565 -9.42146,-9.5 -0.75295,2.5137 -2.43861,29.8007 -3.5984,58.25 -1.2872,31.5746 -1.2815,98.641 0.0111,130 1.99843,48.4847 6.26071,100.7146 8.58584,105.2109 1.98664,3.8418 57.75534,60.2017 76.89093,77.7061 124.73965,114.1065 270.37696,199.7122 430.5,253.0484 83.80211,27.914 167.98699,46.1591 256.00005,55.4821 22.4498,2.378 62.3267,5.2424 81.5,5.8541 22.7239,0.725 74.1423,0.5777 75.3957,-0.216 z M 699,2029.5577 c 0,-0.7933 -4.1625,-7.3044 -9.25,-14.4691 -77.25935,-108.8045 -121.52684,-237.6811 -130.72153,-380.5715 -1.32031,-20.5183 -1.32693,-78.3613 -0.0113,-99.0342 6.77907,-106.5248 30.30855,-211.7802 69.87021,-312.5533 3.36196,-8.5638 6.11266,-16.1423 6.11266,-16.8411 0,-0.6989 -3.42688,-10.3422 -7.61528,-21.4296 -32.58275,-86.2518 -56.93896,-181.7401 -69.48592,-272.41884 -3.00962,-21.75101 -4.13752,-26.03935 -6.43176,-24.4539 -1.24186,0.8582 -6.06277,9.03328 -18.70193,31.71384 -107.01684,192.0383 -180.2037,409.825 -211.20639,628.5 -4.0958,28.8894 -8.99732,71.4078 -10.66339,92.5 l -1.18486,15 6.76089,12.5 c 32.53269,60.1487 74.76298,117.0992 129.79047,175.0316 68.11479,71.7106 155.60894,138.8828 235.23817,180.6003 14.14997,7.4131 17.5,8.5475 17.5,5.9258 z M 305.66393,1946.25 c -1.1261,-12.1958 -3.56315,-45.3715 -4.86664,-66.25 -1.9873,-31.8312 -1.66948,-144.395 0.50257,-178 0.94205,-14.575 1.978,-31 2.3021,-36.5 l 0.58928,-10 -8.46683,-17.5 c -53.53505,-110.651 -93.4536,-241.3138 -117.77338,-385.5 -3.90642,-23.1603 -4.99168,-25.261 -8.99561,-17.4126 -2.48991,4.8806 -3.70575,10.9743 -8.36253,41.9126 -21.85009,145.1654 -27.47751,286.1728 -17.04102,427 0.83557,11.275 1.78883,21.4 2.11834,22.5 0.32952,1.1 5.08126,10.0487 10.55944,19.886 37.68307,67.6686 83.79619,133.875 135.02731,193.864 7.44973,8.7233 11.54262,12.75 12.95942,12.75 1.95146,0 2.03489,-0.3891 1.44755,-6.75 z m -168.02006,-253 c -0.36528,-7.5625 -1.11019,-21.0926 -1.65536,-30.067 -0.54516,-8.9743 -1.44075,-34.2868 -1.99019,-56.25 -2.53597,-101.3728 4.93991,-219.3191 20.43567,-322.4114 1.32094,-8.7881 2.18712,-16.3256 1.92484,-16.75 -1.5274,-2.4714 -3.83022,0.7814 -9.89607,13.9784 -29.32878,63.8084 -55.484395,138.1931 -72.347089,205.75 C 67.389483,1514.4471 64,1529.7037 64,1533.0321 c 0,1.5199 2.736677,10.7969 6.081505,20.6157 12.667149,37.1843 31.030495,82.4836 48.238455,118.9961 13.62691,28.9141 16.53279,34.3561 18.34521,34.3561 1.47634,0 1.57553,-1.3936 0.9787,-13.75 z m 168.79392,-60 c 9.572,-96.322 24.2141,-181.8915 46.13603,-269.6225 41.25524,-165.1024 104.03251,-321.6014 187.10747,-466.44485 l 13.37366,-23.31736 -1.51703,-14.68264 c -1.32899,-12.86274 -4.50541,-54.56552 -4.52925,-59.46403 -0.0203,-4.17509 -3.32829,-2.72432 -16.7725,7.3559 -116.7236,87.51708 -220.86004,199.12788 -298.9673,320.42548 -18.25689,28.3523 -42.70401,70.0286 -50.81581,86.6284 l -2.75042,5.6284 2.22125,14.3716 c 22.23736,143.8766 64.41615,285.4982 118.57154,398.1216 4.93133,10.2554 6.99676,10.5154 7.94236,1 z m 2010.33851,-67 c 5.0974,-11.9708 20.4657,-64.0395 28.7039,-97.25 35.8114,-144.3669 43.637,-291.0064 23.4276,-439 -2.724,-19.9483 -8.0426,-50.61565 -12.9203,-74.5 -4.7705,-23.35899 -14.2536,-62.79499 -16.1636,-67.21691 -1.9336,-4.47639 -35.677,-32.1152 -73.8239,-60.46823 -104.6861,-77.80887 -217.1252,-140.50107 -339.819,-189.47133 -24.6678,-9.84557 -30.1669,-11.35513 -28.8484,-7.91918 0.2971,0.77412 6.7667,10.10783 14.3771,20.74157 30.5909,42.74398 57.3627,85.53487 83.3537,133.22892 l 11.3705,20.86512 15.033,11.17108 C 2188.7478,940.73752 2290.775,1111.94 2317.3947,1313 c 4.594,34.6989 5.7846,52.5221 6.3296,94.7559 0.6945,53.8197 -1.6101,90.794 -8.7612,140.5665 -1.6454,11.4523 -2.7337,21.2398 -2.4184,21.75 1.1386,1.8422 2.2452,0.8427 4.2316,-3.8224 z M 67.893105,1492 c 20.356789,-82.3812 52.411965,-170.6094 87.483565,-240.7883 6.2875,-12.5814 6.39153,-12.9268 10.14604,-33.6921 l 3.79341,-20.9803 -2.6731,-22.0197 C 149.37831,1032.3015 146.92743,877.89643 159.54012,727.0387 161.39996,704.79353 161.40867,701 159.59986,701 153.83719,701 67.883885,805.90454 62.900378,819.02006 57.583914,833.01186 41.512532,891.7062 34.976756,921 21.823248,979.95493 13.816982,1035.4451 8.7894663,1102.5 c -1.7274166,23.0396 -1.7234355,123.0407 0.00581,146 6.8730047,91.2531 21.1826957,172.6978 44.0801397,250.8855 4.547753,15.5291 6.487614,19.7018 8.285743,17.8229 0.372834,-0.3896 3.402209,-11.7334 6.731944,-25.2084 z M 186.5,1192.2569 C 225.63756,1121.34 279.37173,1045.0172 334.529,982 393.87806,914.19367 465.38814,848.30545 536.13336,796.24505 l 9.63336,-7.08906 0.52777,-56.82799 c 0.35483,-38.20748 1.05672,-63.70896 2.14209,-77.828 5.00666,-65.12919 12.57394,-117.36171 25.69304,-177.34409 2.20668,-10.08925 3.74259,-19.04654 3.41314,-19.90508 -0.52915,-1.37894 -3.24894,-1.4827 -23.32089,-0.88965 -24.7005,0.72981 -52.95625,2.22396 -68.67373,3.63142 -8.29439,0.74275 -10.21363,1.23821 -11.52358,2.97485 -0.86445,1.14602 -7.61186,11.40967 -14.99425,22.80811 C 343.37078,664.35442 255.3662,865.90453 201.97044,1074.5 188.82766,1125.8435 175,1189.3114 175,1198.2923 c 0,5.311 1.25235,7.9481 3.37186,7.1 0.62047,-0.2483 4.27814,-6.1592 8.12814,-13.1354 z m 458.90282,-8.5222 c 6.70198,-15.3574 26.76527,-55.5064 36.16644,-72.3733 C 766.1902,959.54062 886.89347,836.92357 1035.5,751.819 c 84.3737,-48.31947 176.4137,-82.63521 273.25,-101.87719 20.8854,-4.15007 20.9285,-4.34975 3,-13.91235 -50.9037,-27.15071 -99.8821,-49.95378 -154.25,-71.81481 -23.3383,-9.38419 -29.8785,-11.6318 -33.5,-11.51247 -5.6813,0.18719 -49.759,8.88353 -78,15.38907 -127.19145,29.29959 -254.34559,78.41391 -366.58843,141.59776 l -15.08843,8.49359 -6.87616,9.1587 c -25.58287,34.07511 -64.84398,91.66592 -85.80881,125.87008 -15.22204,24.83479 -13.96979,20.05127 -11.07047,42.28862 12.54554,96.22217 35.28211,189.1922 68.10945,278.5 6.87512,18.704 8.60579,22.2149 10.57484,21.4525 0.6864,-0.2657 3.45428,-5.5388 6.15083,-11.7178 z m -470.99803,-14.5806 c 0.28755,-0.4653 2.75774,-10.9387 5.4893,-23.2743 C 201.90961,1046.459 227.30603,960.1558 261.66569,868 311.88073,733.31859 376.76749,603.7609 453.16018,485.64799 460.22208,474.72938 466,464.88463 466,463.77076 c 0,-1.81608 -0.49512,-1.97764 -4.79445,-1.56453 -3.89575,0.37433 -8.16014,2.4867 -22.75,11.26923 C 378.7233,509.43195 315.71333,554.9712 262,601.00532 c -27.19588,23.30777 -67.73843,61.49532 -84.65318,79.7359 l -9.64971,10.40609 -1.27881,13.17635 c -11.03376,113.68684 -12.83836,249.5973 -4.84877,365.17634 2.14818,31.076 6.85563,81.1924 9.0408,96.25 0.57132,3.9369 2.43297,5.607 3.79446,3.4041 z M 2335,871.07463 c 0,-2.2077 -6.0135,-22.32064 -12.5797,-42.07463 l -4.4873,-13.5 -10.0408,-12 C 2255.1077,740.41593 2193.8231,678.5535 2133.5,627.46369 1994.9276,510.1017 1837.5346,420.20587 1663.5129,359.02823 c -25.4653,-8.95238 -60.2136,-20.04457 -62.7629,-20.03488 -4.3111,0.0164 -0.5703,3.70703 15.5742,15.36556 97.2745,70.24547 189.4688,159.0064 262.6665,252.88467 l 8.3769,10.74359 9.5662,3.64734 c 86.7796,33.08678 152.1729,63.8801 227.5662,107.15955 65.6336,37.67689 141.1589,89.67223 195.5,134.59176 11.5591,9.55499 15,11.31876 15,7.68881 z M 573.22276,841.14833 c 20.44851,-32.53159 36.06464,-55.59068 69.22021,-102.2119 3.74758,-5.26959 4.66267,-7.23079 3.7839,-8.10956 -0.87877,-0.87877 -4.12979,0.63207 -13.44297,6.24729 -13.1476,7.92713 -64.0815,41.6572 -74.68317,49.45761 l -6.39927,4.7084 0.64863,13.62992 c 0.7606,15.98244 3.49632,51.6032 4.21996,54.94635 0.32494,1.5012 1.09421,2.20228 2.18578,1.99207 0.93567,-0.1802 7.36626,-9.36371 14.46693,-20.66018 z M 1993,792.38877 c 0,-2.1063 -12.8923,-25.2316 -29.764,-53.38877 -21.1206,-35.24795 -48.0956,-75.5529 -70.3558,-105.12279 l -8.7497,-11.62279 -11.8152,-4.22501 c -170.9741,-61.13855 -362.1925,-91.67778 -539.8989,-86.22651 -41.2991,1.26688 -69.0673,2.95612 -102.4164,6.23035 -39.237,3.85231 -85.6479,10.21463 -87.4169,11.9837 -1.7861,1.78601 1.4136,3.45697 23.9169,12.4903 46.7041,18.74804 107.2115,47.1827 150.7332,70.83513 11.8147,6.42083 20.7349,10.65668 22.4387,10.65526 1.5555,-0.001 8.9704,-0.89243 16.4777,-1.98029 C 1392.2092,636.79207 1433.5993,634 1475,634 c 115.7819,0 222.9049,21.6148 341.0597,68.81749 55.79,22.28805 120.3353,55.6804 163.7695,84.7257 9.7615,6.52765 13.1708,7.78196 13.1708,4.84558 z m 316.2086,-1.0365 C 2308.8087,788.47182 2296.6695,756.85316 2288.7253,738 2236.0042,612.88162 2164.1717,500.15595 2072.0927,398.04156 c -15.1186,-16.76635 -67.1302,-68.49078 -84.5927,-84.12571 -34.5764,-30.95772 -70.6682,-59.83833 -107.2763,-85.84232 -11.2831,-8.01479 -13.2872,-8.80228 -38.6017,-15.16785 -135.398,-34.0471 -274.4309,-36.49839 -415.622,-7.32783 -11.825,2.44309 -26.4495,5.67501 -32.499,7.18206 -15.0159,3.74079 -15.0422,4.66996 -0.3234,11.43179 20.7406,9.52824 72.0685,35.58166 92.1179,46.75787 24.6714,13.75269 54.2428,31.5024 75.3985,45.25657 l 16.194,10.52838 15.306,4.21922 c 34.2009,9.42773 102.4625,33.25503 144.9116,50.5826 147.797,60.33016 285.8953,144.39644 404.8944,246.47629 55.4944,47.60421 115.2731,107.50655 157.9921,158.31879 6.3551,7.55915 9.832,9.45321 9.2165,5.02085 z M 92.672733,769.5 C 111.11695,746.32222 127.5011,727.07652 148.12726,704.36016 164.78033,686.01951 162.79253,690.74528 165.52458,663 c 1.75849,-17.8584 9.32906,-79.88759 9.97746,-81.75 0.63897,-1.83531 -0.51654,-4.25 -2.03377,-4.25 -2.46473,0 -30.78524,51.01355 -48.02106,86.5 -17.28223,35.58201 -31.526678,68.75366 -45.08754,104.99724 -6.435335,17.19946 -7.539301,21.92606 -4.981019,21.32608 C 76.136909,789.6455 83.919246,780.5 92.672733,769.5 z M 569.5,772.40888 c 18.09731,-12.72226 48.25388,-32.20725 71,-45.87503 9.9,-5.94876 18.80636,-11.51427 19.79191,-12.3678 0.98555,-0.85353 7.96055,-9.41626 15.5,-19.02829 C 732.16975,623.2618 799.02626,551.77953 862.5,495.51146 c 10.71921,-9.50235 12.58007,-11.83139 10.84187,-13.56959 -0.46513,-0.46513 -10.06983,-2.43668 -21.34378,-4.38122 -80.70277,-13.91971 -165.37751,-21.53612 -239.62565,-21.55409 -20.50687,-0.005 -27.37239,0.29851 -28.13076,1.24344 -1.75984,2.19278 -11.38813,47.99364 -16.65999,79.25 -11.77896,69.83643 -16.56721,128.48874 -16.57655,203.05 -0.005,41.24958 0.24344,44.34019 3.46672,43.09724 0.56547,-0.21806 7.32814,-4.82532 15.02814,-10.23836 z m 129.15148,-79.08163 c 112.58779,-61.01531 247.28141,-109.97766 374.96472,-136.30303 38.0442,-7.84385 35.8838,-7.27925 35.8838,-9.37793 0,-2.14082 -3.2985,-3.44268 -39.5,-15.58997 -43.6339,-14.64121 -94.62359,-28.75751 -142.5,-39.45059 -31.89814,-7.12438 -42.31454,-8.99933 -44.44365,-7.99985 -1.04757,0.49177 -8.3513,6.68171 -16.23051,13.75543 C 805.45147,553.46136 746.19548,615.87217 694.84357,679.5 c -14.90533,18.46853 -17.23756,21.77267 -16.14172,22.86852 1.10886,1.10886 1.78902,0.80061 19.94963,-9.04127 z M 193.82281,656.86816 c 70.31436,-68.80808 143.91595,-126.75128 225.62814,-177.62683 15.36656,-9.56751 18.79919,-12.32452 17.26048,-13.86323 -1.46265,-1.46265 -62.10077,7.06424 -101.21143,14.23227 -36.86775,6.75696 -108.46686,23.13925 -115.86725,26.5111 -1.76259,0.80309 -29.74503,41.22995 -35.08566,50.68904 -2.12744,3.76802 -16.39694,118.00539 -15.01872,120.23539 0.32431,0.52476 1.06449,0.9541 1.64483,0.9541 0.58034,0 10.77267,-9.50933 22.64961,-21.13184 z M 1874,610.49957 c 0,-0.82523 -4.8048,-7.46273 -10.6773,-14.75 -77.383,-96.02516 -173.3085,-185.12289 -273.4039,-253.94366 l -15.5538,-10.69409 -20.9325,-5.6204 c -101.1429,-27.157 -205.7394,-43.84999 -309.9325,-49.46337 -35,-1.88562 -31.4963,-2.40479 -54.2479,8.03827 -71.6667,32.89534 -146.7031,77.40353 -215.7521,127.97428 -36.21214,26.52141 -81.5,63.17737 -81.5,65.96605 0,1.42562 1.58655,2.13441 7.75,3.46233 73.63379,15.86448 116.2736,27.3329 173.25,46.59739 18.975,6.4157 38.8478,13.22665 44.1618,15.13545 l 9.6618,3.47052 17.8382,-2.7984 c 203.0343,-31.85147 411.8147,-20.38672 614.1492,33.72476 30.4876,8.15348 60.3477,17.17124 88.689,26.78412 23.0431,7.81582 26.5,8.61375 26.5,6.11675 z M 256.12567,491.55295 C 314.01404,477.40249 380.45837,465.75192 439,459.48717 l 15.5,-1.65871 13.33415,-7.56859 C 482.74807,441.79459 480.02416,444.6875 501.03419,415 544.51983,353.55412 601.12123,284.29905 651.412,231.0041 c 9.28418,-9.83878 10.35407,-11.42252 16.89141,-25.0041 9.63239,-20.01169 25.94939,-50.84966 38.89032,-73.5 5.97046,-10.45 10.72088,-19.675 10.55651,-20.5 -0.24652,-1.23725 -1.95867,-1.4382 -9.77456,-1.14719 -11.23575,0.41834 -11.88219,0.66751 -48.47568,18.68502 -89.17819,43.9086 -172.19083,98.734 -248,163.79071 -42.03328,36.07145 -91.58673,85.85311 -128.09006,128.67995 C 264.52421,444.16581 226,493.77884 226,495.94333 c 0,1.09504 1.18871,2.05667 2.54234,2.05667 0.66495,0 13.07745,-2.90117 27.58333,-6.44705 z m 631.08542,-17.86131 c 2.9089,-2.3696 13.1677,-10.8071 22.79733,-18.75 50.53784,-41.6856 104.89038,-80.05626 161.99158,-114.35933 30.4201,-18.27463 49.9446,-28.92985 85.5,-46.6605 23.5415,-11.73957 32,-16.41548 32,-17.68972 0,-1.61422 -2.552,-1.72357 -37.5,-1.60696 -164.31902,0.54833 -333.45793,31.62764 -488,89.67012 -21.65273,8.13227 -58.06602,22.85116 -60.83929,24.5923 -1.40895,0.88458 -7.7926,22.03402 -13.75674,45.57699 -3.14095,12.39861 -3.3644,14.09123 -1.99267,15.09426 1.04643,0.76517 13.89488,1.33449 39.81684,1.7643 78.23622,1.29724 157.6677,9.03715 232.27186,22.63288 11.55,2.10485 21.31999,3.87583 21.71109,3.93551 0.39109,0.0597 3.09109,-1.83025 6,-4.19985 z m -371.18216,-20.6752 c 8.5409,-0.50794 26.2204,-1.2399 39.28776,-1.62658 15.366,-0.4547 24.00447,-1.0893 24.45417,-1.79646 1.08471,-1.70571 14.15152,-50.81788 14.19257,-53.3434 0.0225,-1.3819 -0.56182,-2.25 -1.51437,-2.25 -4.9908,0 -102.69382,48.39861 -107.59293,53.29771 C 483.20214,448.9517 482,451.23138 482,452.71393 l 0,2.56009 9.25,-0.66703 c 5.0875,-0.36687 16.23802,-1.08262 24.77893,-1.59055 z M 531.3972,416.63168 C 549.60374,407.6291 571.475,397.19895 580,393.45357 c 8.525,-3.74539 16.03093,-7.29214 16.67985,-7.88168 0.64891,-0.58954 4.64272,-11.64689 8.87512,-24.57189 11.17028,-34.11207 24.01336,-68.0141 39.15034,-103.34564 3.94303,-9.2035 5.197,-13.15205 4.42268,-13.92637 C 647.65327,242.25327 646.60212,243.27292 627.19905,265 585.83229,311.32146 542.33851,365.70318 506.16696,416.33047 498.17634,427.51448 495.37271,433 497.6472,433 c 0.35596,0 15.54346,-7.36575 33.75,-16.36832 z M 632.79662,371.1215 C 767.07217,317.42677 908.1254,284.71177 1053.5,273.54619 c 39.5334,-3.03639 57.7619,-3.74116 106.8794,-4.13232 l 49.8794,-0.39723 19.1206,-7.95699 c 34.5374,-14.37267 84.0006,-31.80854 113.6206,-40.05151 12.7665,-3.5528 15.6656,-5.26563 12.6718,-7.48668 -1.0055,-0.74596 -9.7805,-4.60881 -19.5,-8.5841 -162.0045,-66.26018 -332.9219,-99.90022 -507.6718,-99.92017 -14.3,-0.002 -29.07016,0.28695 -32.82259,0.6413 l -6.82259,0.64428 -16.19143,14.15849 c -25.55638,22.34761 -41.90174,37.69956 -75.04892,70.48773 L 666.72895,221.5 l -5.3423,11.21627 c -8.08568,16.97605 -22.16048,50.26941 -31.29143,74.01859 -10.11687,26.31352 -25.30082,71.28697 -24.64497,72.9961 0.26784,0.69797 0.97208,1.26904 1.56499,1.26904 0.5929,0 12.19453,-4.44533 25.78138,-9.8785 z M 1550.409,318.14732 c 1.0218,-1.65344 -2.0584,-4.0584 -16.909,-13.2019 -45.4767,-28.00001 -104.5247,-59.27594 -151.7795,-80.39294 l -12.7794,-5.71082 -16.7206,4.68879 c -40.566,11.37558 -120.9813,39.91471 -123.45,43.81201 -1.5135,2.38951 2.6061,3.36388 16.9568,4.01062 89.041,4.01277 205.3275,21.91881 292.7727,45.08177 10.3757,2.74837 11.1958,2.86631 11.909,1.71247 z m -160.3767,-109.6282 c 97.2198,-24.02771 202.3206,-32.95255 299.9677,-25.47233 43.1409,3.3048 87.1639,9.96155 130,19.65742 25.4291,5.75584 27,5.98702 27,3.9735 0,-2.53864 -48.0627,-32.23255 -84.5,-52.20541 -20.3103,-11.13296 -66.341,-33.94179 -86.4309,-42.82765 C 1536.5795,49.947678 1394.4863,15.951715 1243,8.0323511 1217.9473,6.7226541 1153.1538,6.7191646 1128,8.0261577 1038.736,12.664328 947.84009,27.357142 866.47022,50.300987 L 854.44044,53.693021 839.58499,65.3158 c -26.80395,20.971181 -39.71067,31.807097 -39.31262,33.005144 0.28723,0.864526 11.04042,1.35204 40.30968,1.827506 40.64427,0.66025 64.36655,1.72725 97.41795,4.38173 141.1725,11.33811 283.7524,46.24305 412,100.86155 9.625,4.09913 18.4905,7.4879 19.701,7.53061 1.2106,0.0427 10.3597,-1.93874 20.3313,-4.40322 z m -693.45047,-24.1102 c 22.2965,-21.83835 45.08492,-43.22028 64.14063,-60.18194 15.19547,-13.52562 17.60771,-16.28686 15.41317,-17.64316 -0.83296,-0.51479 -25.32947,0.66183 -41.44194,1.99056 l -7.8063,0.64375 -2.6178,4.14094 c -6.71353,10.61972 -26.43911,45.91281 -35.9143,64.258 C 678.91934,195.88627 677.36367,200 679.89085,200 c 0.42504,0 7.93598,-7.01599 16.69098,-15.59108 z M 762,101.96417 l 25.5,-1.24847 6,-4.936949 C 796.8,93.063429 807.0375,84.768224 816.25,77.344964 825.4625,69.921703 833,63.458856 833,62.98308 833,59.852236 825.1431,61.976563 788.5,75.014863 739.90192,92.306969 732,95.995926 732,101.39149 c 0,1.28785 2.63752,2.63225 4,2.03889 0.275,-0.11976 11.975,-0.77956 26,-1.46621 z"
       id="path2989"
       style="fill:#5088a4" />
  </g>
</svg>
